$MeshFormat
4.1 0 8
$EndMeshFormat
$Entities
8 10 3 0
1 0 -0.008943239638369 0 0 
2 0.0072284161474 -0.003443239638369 0 0 
3 0.0072284161474 -0.003443239638369 0.1 0 
4 0 -0.008943239638369 0.1 0 
5 0.008228416147400001 -0.002443239638369 0.1 0 
6 0.008228416147400001 -0.002443239638369 0 0 
7 0.01543303437366 -0.002443239638369 0.1 0 
8 0.01543303437366 -0.002443239638369 0 0 
1 -1.000000000002735e-07 -0.008943339638369 -1e-07 0.007228516147400446 -0.003443139638369123 1e-07 0 2 1 -2 
2 0.0072283161474 -0.003443339638369 -1.000000000028756e-07 0.0072285161474 -0.003443139638369 0.1000001 0 2 2 -3 
3 -1.000000000002735e-07 -0.008943339638369 0.0999999 0.007228516147400446 -0.003443139638369123 0.1000001 0 2 4 -3 
4 -1e-07 -0.008943339638369 -1.000000000028756e-07 1e-07 -0.008943139638369001 0.1000001 0 2 1 -4 
5 0.0072283161474 -0.003443339638369 0.0999999 0.0082285161474 -0.002443139638369 0.1000001 0 2 3 -5 
6 0.008228316147400001 -0.002443339638369 -1.000000000028756e-07 0.0082285161474 -0.002443139638369 0.1000001 0 2 6 -5 
7 0.0072283161474 -0.003443339638369 -1e-07 0.0082285161474 -0.002443139638369 1e-07 0 2 2 -6 
8 0.008228316147400001 -0.002443339638369 0.0999999 0.01543313437366 -0.002443139638369 0.1000001 0 2 5 -7 
9 0.01543293437366 -0.002443339638369 -1.000000000028756e-07 0.01543313437366 -0.002443139638369 0.1000001 0 2 8 -7 
10 0.008228316147400001 -0.002443339638369 -1e-07 0.01543313437366 -0.002443139638369 1e-07 0 2 6 -8 
1 -1.000000031028264e-07 -0.008943339638369 -1.000000000028756e-07 0.007228516147399619 -0.003443139638372113 0.1000001 0 4 1 2 -3 -4 
2 0.0072283161474 -0.003443339638369 -1.000000000028756e-07 0.0082285161474 -0.002443139638369 0.1000001 0 4 2 5 -6 -7 
3 0.008228316147400001 -0.002443339638369 -1.000000000028756e-07 0.01543313437366 -0.002443139638369 0.1000001 0 4 6 8 -9 -10 
$EndEntities
$Nodes
21 361 1 361
0 1 0 1
1
0 -0.008943239638369 0
0 2 0 1
2
0.0072284161474 -0.003443239638369 0
0 3 0 1
3
0.0072284161474 -0.003443239638369 0.1
0 4 0 1
4
0 -0.008943239638369 0.1
0 5 0 1
5
0.008228416147400001 -0.002443239638369 0.1
0 6 0 1
6
0.008228416147400001 -0.002443239638369 0
0 7 0 1
7
0.01543303437366 -0.002443239638369 0.1
0 8 0 1
8
0.01543303437366 -0.002443239638369 0
1 1 0 3
9
10
11
0.002396350198877953 -0.008550102921445268 0
0.004541475531146197 -0.007411907831525692 0
0.006210488655333294 -0.005647978710175531 0
1 2 0 33
12
13
14
15
16
17
18
19
20
21
22
23
24
25
26
27
28
29
30
31
32
33
34
35
36
37
38
39
40
41
42
43
44
0.0072284161474 -0.003443239638369 0.002941176470588237
0.0072284161474 -0.003443239638369 0.005882352941176475
0.0072284161474 -0.003443239638369 0.008823529411764711
0.0072284161474 -0.003443239638369 0.01176470588235295
0.0072284161474 -0.003443239638369 0.01470588235294119
0.0072284161474 -0.003443239638369 0.01764705882352942
0.0072284161474 -0.003443239638369 0.02058823529411766
0.0072284161474 -0.003443239638369 0.0235294117647059
0.0072284161474 -0.003443239638369 0.02647058823529414
0.0072284161474 -0.003443239638369 0.02941176470588238
0.0072284161474 -0.003443239638369 0.03235294117647062
0.0072284161474 -0.003443239638369 0.03529411764705885
0.0072284161474 -0.003443239638369 0.03823529411764708
0.0072284161474 -0.003443239638369 0.04117647058823532
0.0072284161474 -0.003443239638369 0.04411764705882355
0.0072284161474 -0.003443239638369 0.04705882352941179
0.0072284161474 -0.003443239638369 0.05000000000000002
0.0072284161474 -0.003443239638369 0.05294117647058825
0.0072284161474 -0.003443239638369 0.05588235294117648
0.0072284161474 -0.003443239638369 0.05882352941176471
0.0072284161474 -0.003443239638369 0.06176470588235293
0.0072284161474 -0.003443239638369 0.06470588235294117
0.0072284161474 -0.003443239638369 0.06764705882352941
0.0072284161474 -0.003443239638369 0.07058823529411762
0.0072284161474 -0.003443239638369 0.07352941176470586
0.0072284161474 -0.003443239638369 0.0764705882352941
0.0072284161474 -0.003443239638369 0.07941176470588233
0.0072284161474 -0.003443239638369 0.08235294117647057
0.0072284161474 -0.003443239638369 0.0852941176470588
0.0072284161474 -0.003443239638369 0.08823529411764704
0.0072284161474 -0.003443239638369 0.09117647058823528
0.0072284161474 -0.003443239638369 0.0941176470588235
0.0072284161474 -0.003443239638369 0.09705882352941174
1 3 0 3
45
46
47
0.002396350198877953 -0.008550102921445268 0.1
0.004541475531146197 -0.007411907831525692 0.1
0.006210488655333294 -0.005647978710175531 0.1
1 4 0 33
48
49
50
51
52
53
54
55
56
57
58
59
60
61
62
63
64
65
66
67
68
69
70
71
72
73
74
75
76
77
78
79
80
0 -0.008943239638369 0.002941176470588237
0 -0.008943239638369 0.005882352941176475
0 -0.008943239638369 0.008823529411764711
0 -0.008943239638369 0.01176470588235295
0 -0.008943239638369 0.01470588235294119
0 -0.008943239638369 0.01764705882352942
0 -0.008943239638369 0.02058823529411766
0 -0.008943239638369 0.0235294117647059
0 -0.008943239638369 0.02647058823529414
0 -0.008943239638369 0.02941176470588238
0 -0.008943239638369 0.03235294117647062
0 -0.008943239638369 0.03529411764705885
0 -0.008943239638369 0.03823529411764708
0 -0.008943239638369 0.04117647058823532
0 -0.008943239638369 0.04411764705882355
0 -0.008943239638369 0.04705882352941179
0 -0.008943239638369 0.05000000000000002
0 -0.008943239638369 0.05294117647058825
0 -0.008943239638369 0.05588235294117648
0 -0.008943239638369 0.05882352941176471
0 -0.008943239638369 0.06176470588235293
0 -0.008943239638369 0.06470588235294117
0 -0.008943239638369 0.06764705882352941
0 -0.008943239638369 0.07058823529411762
0 -0.008943239638369 0.07352941176470586
0 -0.008943239638369 0.0764705882352941
0 -0.008943239638369 0.07941176470588233
0 -0.008943239638369 0.08235294117647057
0 -0.008943239638369 0.0852941176470588
0 -0.008943239638369 0.08823529411764704
0 -0.008943239638369 0.09117647058823528
0 -0.008943239638369 0.0941176470588235
0 -0.008943239638369 0.09705882352941174
1 5 0 0
1 6 0 33
81
82
83
84
85
86
87
88
89
90
91
92
93
94
95
96
97
98
99
100
101
102
103
104
105
106
107
108
109
110
111
112
113
0.008228416147400001 -0.002443239638369 0.002941176470588237
0.008228416147400001 -0.002443239638369 0.005882352941176475
0.008228416147400001 -0.002443239638369 0.008823529411764711
0.008228416147400001 -0.002443239638369 0.01176470588235295
0.008228416147400001 -0.002443239638369 0.01470588235294119
0.008228416147400001 -0.002443239638369 0.01764705882352942
0.008228416147400001 -0.002443239638369 0.02058823529411766
0.008228416147400001 -0.002443239638369 0.0235294117647059
0.008228416147400001 -0.002443239638369 0.02647058823529414
0.008228416147400001 -0.002443239638369 0.02941176470588238
0.008228416147400001 -0.002443239638369 0.03235294117647062
0.008228416147400001 -0.002443239638369 0.03529411764705885
0.008228416147400001 -0.002443239638369 0.03823529411764708
0.008228416147400001 -0.002443239638369 0.04117647058823532
0.008228416147400001 -0.002443239638369 0.04411764705882355
0.008228416147400001 -0.002443239638369 0.04705882352941179
0.008228416147400001 -0.002443239638369 0.05000000000000002
0.008228416147400001 -0.002443239638369 0.05294117647058825
0.008228416147400001 -0.002443239638369 0.05588235294117648
0.008228416147400001 -0.002443239638369 0.05882352941176471
0.008228416147400001 -0.002443239638369 0.06176470588235293
0.008228416147400001 -0.002443239638369 0.06470588235294117
0.008228416147400001 -0.002443239638369 0.06764705882352941
0.008228416147400001 -0.002443239638369 0.07058823529411762
0.008228416147400001 -0.002443239638369 0.07352941176470586
0.008228416147400001 -0.002443239638369 0.0764705882352941
0.008228416147400001 -0.002443239638369 0.07941176470588233
0.008228416147400001 -0.002443239638369 0.08235294117647057
0.008228416147400001 -0.002443239638369 0.0852941176470588
0.008228416147400001 -0.002443239638369 0.08823529411764704
0.008228416147400001 -0.002443239638369 0.09117647058823528
0.008228416147400001 -0.002443239638369 0.0941176470588235
0.008228416147400001 -0.002443239638369 0.09705882352941174
1 7 0 0
1 8 0 2
114
115
0.01062995555615333 -0.002443239638369 0.1
0.01303149496490667 -0.002443239638369 0.1
1 9 0 33
116
117
118
119
120
121
122
123
124
125
126
127
128
129
130
131
132
133
134
135
136
137
138
139
140
141
142
143
144
145
146
147
148
0.01543303437366 -0.002443239638369 0.002941176470588237
0.01543303437366 -0.002443239638369 0.005882352941176475
0.01543303437366 -0.002443239638369 0.008823529411764711
0.01543303437366 -0.002443239638369 0.01176470588235295
0.01543303437366 -0.002443239638369 0.01470588235294119
0.01543303437366 -0.002443239638369 0.01764705882352942
0.01543303437366 -0.002443239638369 0.02058823529411766
0.01543303437366 -0.002443239638369 0.0235294117647059
0.01543303437366 -0.002443239638369 0.02647058823529414
0.01543303437366 -0.002443239638369 0.02941176470588238
0.01543303437366 -0.002443239638369 0.03235294117647062
0.01543303437366 -0.002443239638369 0.03529411764705885
0.01543303437366 -0.002443239638369 0.03823529411764708
0.01543303437366 -0.002443239638369 0.04117647058823532
0.01543303437366 -0.002443239638369 0.04411764705882355
0.01543303437366 -0.002443239638369 0.04705882352941179
0.01543303437366 -0.002443239638369 0.05000000000000002
0.01543303437366 -0.002443239638369 0.05294117647058825
0.01543303437366 -0.002443239638369 0.05588235294117648
0.01543303437366 -0.002443239638369 0.05882352941176471
0.01543303437366 -0.002443239638369 0.06176470588235293
0.01543303437366 -0.002443239638369 0.06470588235294117
0.01543303437366 -0.002443239638369 0.06764705882352941
0.01543303437366 -0.002443239638369 0.07058823529411762
0.01543303437366 -0.002443239638369 0.07352941176470586
0.01543303437366 -0.002443239638369 0.0764705882352941
0.01543303437366 -0.002443239638369 0.07941176470588233
0.01543303437366 -0.002443239638369 0.08235294117647057
0.01543303437366 -0.002443239638369 0.0852941176470588
0.01543303437366 -0.002443239638369 0.08823529411764704
0.01543303437366 -0.002443239638369 0.09117647058823528
0.01543303437366 -0.002443239638369 0.0941176470588235
0.01543303437366 -0.002443239638369 0.09705882352941174
1 10 0 2
149
150
0.01062995555615333 -0.002443239638369 0
0.01303149496490667 -0.002443239638369 0
2 1 0 105
151
152
153
154
155
156
157
158
159
160
161
162
163
164
165
166
167
168
169
170
171
172
173
174
175
176
177
178
179
180
181
182
183
184
185
186
187
188
189
190
191
192
193
194
195
196
197
198
199
200
201
202
203
204
205
206
207
208
209
210
211
212
213
214
215
216
217
218
219
220
221
222
223
224
225
226
227
228
229
230
231
232
233
234
235
236
237
238
239
240
241
242
243
244
245
246
247
248
249
250
251
252
253
254
255
0.00250725844899023 -0.008511737008388112 0.06911499617809193
0.00250933916647159 -0.008510998614707374 0.05441356714823103
0.006143936391020949 -0.005744640064170864 0.06029675288271923
0.006142181392484695 -0.005747145741180116 0.08382352941176469
0.006142181392484695 -0.005747145741180116 0.09264705882352939
0.002509037564939392 -0.008511105688155387 0.04852620375469551
0.006142853593607835 -0.005746186271491389 0.03382673742177058
0.006142181392484693 -0.005747145741180119 0.04264705882352944
0.006142181392484693 -0.005747145741180119 0.01617647058823531
0.006142181392484689 -0.005747145741180125 0.01029411764705883
0.006142181392484689 -0.005747145741180125 0.02500000000000002
0.006142181392484689 -0.005747145741180125 0.07794117647058821
0.002510141544731284 -0.008510713686811913 0.004411764705882356
0.002510141544737159 -0.008510713686809826 0.0397058823529412
0.002510141544737159 -0.008510713686809826 0.06323529411764706
0.002509335762714515 -0.008510999823177335 0.08088414468334718
0.002510141544737159 -0.008510713686809826 0.08676470588235291
0.002510141544737159 -0.008510713686809826 0.09558823529411761
0.002508756486538406 -0.008511205462511861 0.01912088255563367
0.002510141544737159 -0.008510713686809826 0.0308823529411765
0.002510141544737159 -0.008510713686809826 0.01323529411764707
0.002508698574779106 -0.008511226017876341 0.07500000000000009
0.00614218139248783 -0.005747145741175643 0.05147058823529414
0.00614218139248783 -0.005747145741175643 0.07205882352941173
0.006142646982292978 -0.005746481213150385 0.06617646634673993
0.005447847735860574 -0.006597941865159487 0.002100714065736631
0.005447847735860574 -0.006597941865159487 0.09789928593426338
0.002508697575495684 -0.00851122637256015 0.02499408734273881
0.002483589832374833 -0.00852008791599403 0.007304863031977139
0.004641785998760057 -0.007334234693681396 0.006263750348979852
0.002525155776559857 -0.008505363136588666 0.01022602816443982
0.00251014154472844 -0.008510713686812922 0.09264705882352939
0.002508668913196222 -0.008511236545835988 0.08970321494162975
0.004729803057591945 -0.007263803445801566 0.0882352950761907
0.002508718667931691 -0.008511218886016169 0.06029414545994493
0.006142181392483441 -0.005747145741181905 0.07499999999999998
0.002507709727591524 -0.008511576919663862 0.05146936097641867
0.006143287844111479 -0.005745566272225631 0.06911484493163123
0.0025071738666317 -0.008511767009928018 0.07205948100323273
0.006143078019908445 -0.005745865864445083 0.03970854976425086
0.006143369637843672 -0.005745449476675415 0.03676529589120878
0.004521254456755638 -0.007427239816950821 0.03538312542044337
0.002508088166498345 -0.00851144264543317 0.0220562895561284
0.004645161813467777 -0.007331573165497092 0.02058825214278406
0.002508668913196234 -0.008511236545835982 0.04264439141221808
0.002508189838536811 -0.00851140656720286 0.04558764528526464
0.004561644613788489 -0.007396507515551621 0.04696981575602699
0.006143078019908451 -0.005745865864445076 0.08087968552986677
0.006143494531748897 -0.005745271128069117 0.02793624272697776
0.00614378028990594 -0.005744863023715894 0.03088138072020374
0.002508668913196228 -0.008511236545835984 0.02793850905927688
0.006142181392478996 -0.005747145741188247 0.05441176470588237
0.002508741397819274 -0.008511210818196193 0.01618265263527538
0.002507587367111274 -0.008511620329609672 0.07794132931592208
0.00614307801990844 -0.005745865864445092 0.01323262670633743
0.006144155017456961 -0.005744327770627911 0.06323907910440998
0.006143927663072546 -0.005744652530772136 0.05735454450206657
0.0025076137192571 -0.008511610980834926 0.05735154175069518
0.002507984600708135 -0.008511479393966631 0.06617465451335253
0.00251014154472844 -0.008510713686812922 0.08382352941176469
0.006201616327239911 -0.005661053637315771 0.09540945757171897
0.003505803457143478 -0.008073423807747769 0.002106750900107817
0.003515284978593562 -0.00806840163784301 0.09789928593426468
0.004609893553233971 -0.007359224884112254 0.00865446953697384
0.006302428011283685 -0.005508876262882653 0.004411764705882356
0.006257070785328953 -0.005578341231725918 0.007320071549689259
0.004533669175302155 -0.007417839525299929 0.09411691576110529
0.004632436416086414 -0.007341589649254794 0.091107740723682
0.006212173024591178 -0.005645489787103805 0.08667635105565748
0.002404409613452869 -0.008547380290885349 0.03363227167940001
0.006205715437221594 -0.005655020249016899 0.0487206694970759
0.004643288000209169 -0.007333050887221847 0.02333790966553425
0.004643288000209959 -0.007333050887221223 0.01783856092270217
0.002403970516268587 -0.008547528889019718 0.03695675681338875
0.00620597574702472 -0.005654636678228927 0.04539618436307583
0.004537652134838735 -0.007414815067281663 0.0117426833907927
0.006281553198191665 -0.005541054838971397 0.08970705990117318
0.00453391943380763 -0.007417649614905721 0.08529387633115362
0.004533924726867891 -0.007417645598052014 0.05000023095157408
0.004549019074181536 -0.007406160521856602 0.03235271022490562
0.006282376265556795 -0.005539792879566854 0.0191178674638889
0.006282376265556311 -0.005539792879567598 0.02205860312434831
0.004547599755718508 -0.007407243030536794 0.06764450949436933
0.004547418885367885 -0.007407380941272503 0.07058572458117074
0.004547424134602691 -0.007407376938937537 0.07352952530539014
0.004548671462901006 -0.007406425693037262 0.06176342997475623
0.004534111882401975 -0.007417503562724972 0.08235174472552767
0.004535346521558354 -0.007416566343764288 0.01470333302378285
0.00454759975571623 -0.007407243030538532 0.07647313756445902
0.004535346521555251 -0.007416566343766645 0.0558849022703426
0.004547599755715409 -0.007407243030539157 0.02940921537671752
0.004548849906512937 -0.007406289573428846 0.05882352941176574
0.004534094216707186 -0.007417516969898097 0.02647058823529244
0.004534316468957717 -0.00741734828814587 0.05294036815433809
0.004548286918936507 -0.007406719000539296 0.06470192330973909
0.004548857524311408 -0.007406283762263732 0.04117635551405217
0.004534086584562222 -0.007417522762200084 0.07941164963169436
0.004547597224921124 -0.007407244960288966 0.04411248843766635
0.004535349056309002 -0.007416564419212332 0.038240452738801
0.004539812715713048 -0.007413172678717954 0.00379739968392137
0.004542073720448332 -0.007411452630380314 0.09620450754797875
0.001769224163842641 -0.008731575927130333 0.001945414670485437
0.006602864056634645 -0.00500023081766679 0.00188367325237739
0.001782566395054943 -0.008728324198428741 0.09804611884406336
0.006578899580610999 -0.005044361728528734 0.09804948066365268
2 2 0 34
256
257
258
259
260
261
262
263
264
265
266
267
268
269
270
271
272
273
274
275
276
277
278
279
280
281
282
283
284
285
286
287
288
289
0.0077284161474 -0.002943239638368999 0.06617647058823529
0.0077284161474 -0.002943239638368999 0.07499999999999998
0.0077284161474 -0.002943239638368999 0.08088235294117645
0.0077284161474 -0.002943239638368999 0.08970588235294116
0.0077284161474 -0.002943239638368999 0.05735294117647059
0.0077284161474 -0.002943239638369 0.001470588235294119
0.0077284161474 -0.002943239638368999 0.004411764705882356
0.0077284161474 -0.002943239638369 0.0308823529411765
0.0077284161474 -0.002943239638368999 0.01323529411764707
0.0077284161474 -0.002943239638368999 0.0397058823529412
0.0077284161474 -0.002943239638368999 0.04558823529411767
0.0077284161474 -0.002943239638368999 0.007352941176470593
0.0077284161474 -0.002943239638368999 0.02500000000000002
0.0077284161474 -0.002943239638368999 0.01029411764705883
0.0077284161474 -0.002943239638369 0.02794117647058826
0.0077284161474 -0.002943239638368999 0.06029411764705881
0.0077284161474 -0.002943239638368999 0.01911764705882354
0.0077284161474 -0.002943239638368999 0.02205882352941178
0.0077284161474 -0.002943239638368999 0.01617647058823531
0.0077284161474 -0.002943239638368999 0.05147058823529414
0.0077284161474 -0.002943239638368999 0.05441176470588235
0.0077284161474 -0.002943239638368999 0.03676470588235296
0.0077284161474 -0.002943239638368999 0.03382352941176473
0.0077284161474 -0.002943239638368999 0.0485294117647059
0.0077284161474 -0.002943239638368999 0.08676470588235291
0.0077284161474 -0.002943239638368999 0.04264705882352943
0.0077284161474 -0.002943239638368999 0.06323529411764704
0.0077284161474 -0.002943239638368999 0.07205882352941174
0.0077284161474 -0.002943239638368999 0.07794117647058821
0.0077284161474 -0.002943239638368999 0.08382352941176469
0.0077284161474 -0.002943239638368999 0.09264705882352939
0.0077284161474 -0.002943239638368999 0.09852941176470588
0.0077284161474 -0.002943239638368999 0.09558823529411761
0.0077284161474 -0.002943239638368999 0.06911764705882351
2 3 0 72
290
291
292
293
294
295
296
297
298
299
300
301
302
303
304
305
306
307
308
309
310
311
312
313
314
315
316
317
318
319
320
321
322
323
324
325
326
327
328
329
330
331
332
333
334
335
336
337
338
339
340
341
342
343
344
345
346
347
348
349
350
351
352
353
354
355
356
357
358
359
360
361
0.01186887627811936 -0.002443239638369 0.0980377565783345
0.0118688762781193 -0.002443239638369 0.001962243421665532
0.0108916983230308 -0.002443239638369 0.0692224969793348
0.01288590083311754 -0.002443239638369 0.05441176470588239
0.01090048825298023 -0.002443239638369 0.06024062278965508
0.01077554968794246 -0.002443239638369 0.0838235294117647
0.01061278726374789 -0.002443239638369 0.09212712639037249
0.01288590083311754 -0.002443239638369 0.04852941176470591
0.01288590083311754 -0.002443239638369 0.03382352941176473
0.01062995555615334 -0.002443239638369 0.04019607843137257
0.01077554968794246 -0.002443239638369 0.01617647058823531
0.01303149496490666 -0.002443239638369 0.0215686274509804
0.01094643511536097 -0.002443239638369 0.07468506604587523
0.01061278726374786 -0.002443239638369 0.007872873609627441
0.01077554968794247 -0.002443239638369 0.02794117647058826
0.01273160806785451 -0.002443239638369 0.06650638310243305
0.01276975219802922 -0.002443239638369 0.08098720286168777
0.01077554968794246 -0.002443239638369 0.04558823529411765
0.01077554968794246 -0.002443239638369 0.05147058823529412
0.01288590083311753 -0.002443239638369 0.01323529411764707
0.0128107570641016 -0.002443239638369 0.07192396160409852
0.01303149496490666 -0.002443239638369 0.08627450980392154
0.01288590083311754 -0.002443239638369 0.04264705882352943
0.01271082194852399 -0.002443239638369 0.06295984840020717
0.01288590083311748 -0.002443239638369 0.08970588235294111
0.01077554968794248 -0.002443239638369 0.03676470588235298
0.01288590083311752 -0.002443239638369 0.025
0.01300436789420756 -0.002443239638369 0.009890576974153598
0.01095425465712244 -0.002443239638369 0.07822609841991104
0.01065422124478485 -0.002443239638369 0.01952614379084968
0.01062995555615333 -0.002443239638369 0.03137254901960786
0.01065077865032629 -0.002443239638369 0.05685382928847194
0.01070313679257108 -0.002443239638369 0.09546796041714398
0.01070313679257107 -0.002443239638369 0.004532039582856019
0.01350113427562687 -0.002443239638369 0.004023556971341828
0.01350113427562687 -0.002443239638369 0.09597644302865815
0.01310661594170194 -0.002443239638369 0.05775103613066823
0.01078932562592513 -0.002443239638369 0.06470588235294118
0.01346002644046138 -0.002443239638369 0.06917762716070268
0.01022114455945868 -0.002443239638369 0.0719898343376264
0.01287212489513488 -0.002443239638369 0.07647058823529417
0.01308232233183348 -0.002443239638369 0.03047385620915035
0.01015381229323726 -0.002443239638369 0.05431194232828264
0.01346527331763733 -0.002443239638369 0.06030399684410939
0.01344511199016192 -0.002443239638369 0.08376847996063325
0.01309483798539722 -0.002443239638369 0.09309525497269575
0.01017876650076049 -0.002443239638369 0.0485294117647059
0.01348268402029951 -0.002443239638369 0.05147058823529414
0.01348268402029951 -0.002443239638369 0.04558823529411767
0.01308232233183348 -0.002443239638369 0.03929738562091505
0.01357279568696951 -0.002443239638369 0.01617647058823531
0.01315002172198725 -0.002443239638369 0.01861383442265796
0.01014964767440267 -0.002443239638369 0.03392156862745101
0.01014964767440267 -0.002443239638369 0.0427450980392157
0.01057912818922651 -0.002443239638369 0.08717320261437905
0.01019127776757882 -0.002443239638369 0.08096030731514328
0.01008865483409049 -0.002443239638369 0.01323529411764707
0.0131145824955789 -0.002443239638369 0.006837488248486679
0.01050809051999391 -0.002443239638369 0.01080371235219881
0.01055890678203358 -0.002443239638369 0.02253540305010894
0.0135219683200427 -0.002443239638369 0.02785947712418303
0.0135219683200427 -0.002443239638369 0.03668300653594774
0.01013543791957872 -0.002443239638369 0.02509531590413945
0.01010692971617838 -0.002443239638369 0.089683595212715
0.01340629491665581 -0.002443239638369 0.07444455699551919
0.01028609308135279 -0.002443239638369 0.06263765796909407
0.01026103290320298 -0.002443239638369 0.06673037956774373
0.01340290865907314 -0.002443239638369 0.07849049457612986
0.01385351485319458 -0.002443239638369 0.09821460462728088
0.009931760184328757 -0.002443239638369 0.09811290810497804
0.009931760184328741 -0.002443239638369 0.001887091895021958
0.01385351485319457 -0.002443239638369 0.00178539537271912
$EndNodes
$Elements
21 796 1 796
0 1 15 1
1 1 
0 2 15 1
2 2 
0 3 15 1
3 3 
0 4 15 1
4 4 
0 5 15 1
5 5 
0 6 15 1
6 6 
0 7 15 1
7 7 
0 8 15 1
8 8 
1 1 1 4
9 1 9 
10 9 10 
11 10 11 
12 11 2 
1 2 1 34
13 2 12 
14 12 13 
15 13 14 
16 14 15 
17 15 16 
18 16 17 
19 17 18 
20 18 19 
21 19 20 
22 20 21 
23 21 22 
24 22 23 
25 23 24 
26 24 25 
27 25 26 
28 26 27 
29 27 28 
30 28 29 
31 29 30 
32 30 31 
33 31 32 
34 32 33 
35 33 34 
36 34 35 
37 35 36 
38 36 37 
39 37 38 
40 38 39 
41 39 40 
42 40 41 
43 41 42 
44 42 43 
45 43 44 
46 44 3 
1 3 1 4
47 4 45 
48 45 46 
49 46 47 
50 47 3 
1 4 1 34
51 1 48 
52 48 49 
53 49 50 
54 50 51 
55 51 52 
56 52 53 
57 53 54 
58 54 55 
59 55 56 
60 56 57 
61 57 58 
62 58 59 
63 59 60 
64 60 61 
65 61 62 
66 62 63 
67 63 64 
68 64 65 
69 65 66 
70 66 67 
71 67 68 
72 68 69 
73 69 70 
74 70 71 
75 71 72 
76 72 73 
77 73 74 
78 74 75 
79 75 76 
80 76 77 
81 77 78 
82 78 79 
83 79 80 
84 80 4 
1 5 1 1
85 3 5 
1 6 1 34
86 6 81 
87 81 82 
88 82 83 
89 83 84 
90 84 85 
91 85 86 
92 86 87 
93 87 88 
94 88 89 
95 89 90 
96 90 91 
97 91 92 
98 92 93 
99 93 94 
100 94 95 
101 95 96 
102 96 97 
103 97 98 
104 98 99 
105 99 100 
106 100 101 
107 101 102 
108 102 103 
109 103 104 
110 104 105 
111 105 106 
112 106 107 
113 107 108 
114 108 109 
115 109 110 
116 110 111 
117 111 112 
118 112 113 
119 113 5 
1 7 1 1
120 2 6 
1 8 1 3
121 5 114 
122 114 115 
123 115 7 
1 9 1 34
124 8 116 
125 116 117 
126 117 118 
127 118 119 
128 119 120 
129 120 121 
130 121 122 
131 122 123 
132 123 124 
133 124 125 
134 125 126 
135 126 127 
136 127 128 
137 128 129 
138 129 130 
139 130 131 
140 131 132 
141 132 133 
142 133 134 
143 134 135 
144 135 136 
145 136 137 
146 137 138 
147 138 139 
148 139 140 
149 140 141 
150 141 142 
151 142 143 
152 143 144 
153 144 145 
154 145 146 
155 146 147 
156 147 148 
157 148 7 
1 10 1 3
158 6 149 
159 149 150 
160 150 8 
2 1 2 284
161 221 225 27 
162 220 224 59 
163 51 181 171 
164 197 225 221 
165 192 224 220 
166 48 163 49 
167 163 179 49 
168 50 181 51 
169 203 238 223 
170 179 181 50 
171 41 227 219 
172 182 218 217 
173 222 243 178 
174 163 180 179 
175 79 182 168 
176 79 168 80 
177 63 196 156 
178 23 191 157 
179 49 179 50 
180 196 197 156 
181 191 192 157 
182 78 183 182 
183 30 207 202 
184 72 189 172 
185 172 204 73 
186 57 201 170 
187 53 203 169 
188 70 209 151 
189 156 187 64 
190 154 198 39 
191 157 200 22 
192 159 205 16 
193 32 206 153 
194 174 188 35 
195 78 182 79 
196 62 196 63 
197 24 191 23 
198 30 202 29 
199 74 166 75 
200 68 165 69 
201 55 178 56 
202 60 164 61 
203 57 170 58 
204 51 171 52 
205 53 169 54 
206 76 167 77 
207 72 172 73 
208 55 193 178 
209 169 193 54 
210 169 194 193 
211 54 193 55 
212 29 202 173 
213 21 199 20 
214 37 186 36 
215 68 185 165 
216 76 210 167 
217 166 210 75 
218 162 186 37 
219 20 199 161 
220 65 152 66 
221 63 156 64 
222 70 151 71 
223 20 161 19 
224 15 160 14 
225 32 153 31 
226 40 154 39 
227 43 155 42 
228 17 159 16 
229 23 157 22 
230 26 158 25 
231 38 162 37 
232 152 208 66 
233 36 186 174 
234 66 208 67 
235 67 208 185 
236 67 185 68 
237 75 210 76 
238 29 173 28 
239 34 175 33 
240 36 174 35 
241 77 183 78 
242 33 206 32 
243 16 205 15 
244 22 200 21 
245 25 190 24 
246 35 188 34 
247 39 198 38 
248 31 207 30 
249 61 195 62 
250 64 187 65 
251 56 201 57 
252 52 203 53 
253 69 209 70 
254 73 204 74 
255 71 189 72 
256 190 191 24 
257 195 196 62 
258 167 184 183 
259 167 183 77 
260 164 195 61 
261 178 201 56 
262 171 203 52 
263 165 209 69 
264 21 200 199 
265 74 204 166 
266 15 205 160 
267 158 190 25 
268 38 198 162 
269 153 207 31 
270 65 187 152 
271 151 189 71 
272 175 206 33 
273 34 188 175 
274 214 226 181 
275 44 211 43 
276 160 216 14 
277 215 216 180 
278 223 238 159 
279 217 218 155 
280 219 227 184 
281 161 243 222 
282 203 223 169 
283 183 218 182 
284 160 226 214 
285 179 214 181 
286 41 219 40 
287 58 220 59 
288 28 221 27 
289 193 222 178 
290 59 224 60 
291 27 225 26 
292 196 248 197 
293 191 249 192 
294 197 229 156 
295 192 230 157 
296 17 231 159 
297 161 232 19 
298 167 228 184 
299 155 227 42 
300 10 212 9 
301 43 211 155 
302 214 216 160 
303 181 226 171 
304 11 176 10 
305 180 214 179 
306 45 213 46 
307 46 177 47 
308 14 216 13 
309 13 216 215 
310 13 215 12 
311 205 238 226 
312 184 218 183 
313 40 219 154 
314 221 229 197 
315 220 230 192 
316 170 220 58 
317 173 221 28 
318 194 222 193 
319 169 223 194 
320 184 228 219 
321 60 224 164 
322 26 225 158 
323 218 227 155 
324 159 231 223 
325 222 232 161 
326 226 238 171 
327 235 239 172 
328 209 233 151 
329 174 234 188 
330 189 235 172 
331 172 239 204 
332 201 241 170 
333 154 237 198 
334 159 238 205 
335 206 236 153 
336 207 240 202 
337 240 244 202 
338 170 241 230 
339 228 237 154 
340 12 253 2 
341 197 248 225 
342 192 249 224 
343 208 242 185 
344 199 243 161 
345 202 244 173 
346 173 244 229 
347 231 232 194 
348 237 247 198 
349 209 245 233 
350 80 254 4 
351 198 247 162 
352 165 245 209 
353 164 246 195 
354 195 248 196 
355 190 249 191 
356 1 252 48 
357 246 248 195 
358 185 242 236 
359 205 226 160 
360 236 242 153 
361 188 234 233 
362 234 235 189 
363 233 234 151 
364 174 235 234 
365 182 217 168 
366 241 243 199 
367 240 242 208 
368 201 243 241 
369 207 242 240 
370 236 245 165 
371 162 247 239 
372 206 245 236 
373 239 247 204 
374 186 239 235 
375 3 255 44 
376 230 241 200 
377 164 249 246 
378 246 249 190 
379 152 244 240 
380 156 229 187 
381 157 230 200 
382 210 237 228 
383 185 236 165 
384 166 237 210 
385 186 235 174 
386 152 240 208 
387 162 239 186 
388 42 227 41 
389 229 244 187 
390 19 232 18 
391 18 231 17 
392 210 228 167 
393 200 241 199 
394 188 233 175 
395 171 238 203 
396 151 234 189 
397 18 232 231 
398 233 245 175 
399 166 247 237 
400 187 244 152 
401 153 242 207 
402 178 243 201 
403 175 245 206 
404 158 246 190 
405 204 247 166 
406 158 248 246 
407 180 216 214 
408 211 217 155 
409 176 212 10 
410 211 255 177 
411 44 255 211 
412 184 227 218 
413 219 228 154 
414 173 229 221 
415 170 230 220 
416 223 231 194 
417 194 232 222 
418 48 252 163 
419 46 213 177 
420 2 253 11 
421 224 249 164 
422 225 248 158 
423 4 254 45 
424 9 252 1 
425 47 255 3 
426 180 250 215 
427 215 250 176 
428 168 254 80 
429 163 252 212 
430 176 253 215 
431 177 251 211 
432 163 250 180 
433 213 254 168 
434 215 253 12 
435 211 251 217 
436 212 250 163 
437 217 251 168 
438 168 251 213 
439 212 252 9 
440 11 253 176 
441 45 254 213 
442 177 255 47 
443 176 250 212 
444 213 251 177 
2 2 2 136
445 29 276 98 
446 84 269 15 
447 83 267 14 
448 88 273 19 
449 44 287 113 
450 95 281 26 
451 107 284 38 
452 113 288 44 
453 104 289 35 
454 112 286 43 
455 102 282 33 
456 105 283 36 
457 33 256 102 
458 30 260 99 
459 96 266 27 
460 108 258 39 
461 41 259 110 
462 92 278 23 
463 101 271 32 
464 93 277 24 
465 27 279 96 
466 19 268 88 
467 24 265 93 
468 106 257 37 
469 39 285 108 
470 110 280 41 
471 87 272 18 
472 15 264 84 
473 2 261 6 
474 12 262 81 
475 91 263 22 
476 81 261 12 
477 82 262 13 
478 90 270 21 
479 16 274 85 
480 85 264 16 
481 17 272 86 
482 86 274 17 
483 20 270 89 
484 21 263 90 
485 28 275 97 
486 98 275 29 
487 23 277 92 
488 97 279 28 
489 22 278 91 
490 94 265 25 
491 36 257 105 
492 40 280 109 
493 31 271 100 
494 89 268 20 
495 26 266 95 
496 38 258 107 
497 109 285 40 
498 111 259 42 
499 100 260 31 
500 103 256 34 
501 35 283 104 
502 32 282 101 
503 42 286 111 
504 34 289 103 
505 37 284 106 
506 43 288 112 
507 18 273 87 
508 13 267 82 
509 14 269 83 
510 99 276 30 
511 25 281 94 
512 5 287 3 
513 12 261 2 
514 3 287 44 
515 113 287 5 
516 6 261 81 
517 13 262 12 
518 14 267 13 
519 15 269 14 
520 16 264 15 
521 17 274 16 
522 18 272 17 
523 19 273 18 
524 20 268 19 
525 21 270 20 
526 22 263 21 
527 23 278 22 
528 24 277 23 
529 25 265 24 
530 26 281 25 
531 27 266 26 
532 28 279 27 
533 29 275 28 
534 30 276 29 
535 31 260 30 
536 32 271 31 
537 33 282 32 
538 34 256 33 
539 35 289 34 
540 36 283 35 
541 37 257 36 
542 38 284 37 
543 39 258 38 
544 40 285 39 
545 41 280 40 
546 42 259 41 
547 43 286 42 
548 44 288 43 
549 81 262 82 
550 82 267 83 
551 83 269 84 
552 84 264 85 
553 85 274 86 
554 86 272 87 
555 87 273 88 
556 88 268 89 
557 89 270 90 
558 90 263 91 
559 91 278 92 
560 92 277 93 
561 93 265 94 
562 94 281 95 
563 95 266 96 
564 96 279 97 
565 97 275 98 
566 98 276 99 
567 99 260 100 
568 100 271 101 
569 101 282 102 
570 102 256 103 
571 103 289 104 
572 104 283 105 
573 105 257 106 
574 106 284 107 
575 107 258 108 
576 108 285 109 
577 109 280 110 
578 110 259 111 
579 111 286 112 
580 112 288 113 
2 3 2 216
581 323 347 324 
582 325 335 322 
583 317 348 309 
584 309 348 346 
585 300 341 340 
586 299 339 315 
587 319 341 300 
588 349 352 316 
589 320 331 304 
590 301 349 316 
591 331 350 304 
592 339 351 315 
593 294 326 321 
594 294 333 326 
595 344 353 314 
596 311 344 314 
597 303 347 323 
598 322 335 296 
599 321 326 293 
600 310 329 302 
601 306 345 295 
602 295 334 306 
603 293 332 321 
604 308 332 293 
605 307 336 297 
606 293 337 308 
607 297 338 307 
608 298 331 320 
609 320 342 298 
610 298 342 315 
611 304 350 316 
612 315 351 298 
613 301 341 319 
614 292 328 305 
615 316 352 304 
616 319 349 301 
617 303 348 317 
618 300 340 309 
619 308 337 297 
620 309 346 300 
621 317 347 303 
622 307 338 312 
623 312 339 299 
624 299 343 312 
625 312 343 307 
626 297 336 308 
627 310 328 292 
628 295 344 311 
629 292 329 310 
630 311 334 295 
631 313 333 294 
632 318 345 306 
633 296 335 314 
634 314 353 296 
635 302 354 310 
636 305 356 292 
637 294 355 313 
638 306 357 318 
639 322 359 290 
640 291 360 323 
641 113 359 322 
642 323 360 81 
643 137 313 305 
644 145 314 146 
645 106 318 302 
646 93 315 92 
647 311 314 145 
648 123 316 124 
649 96 307 95 
650 94 299 93 
651 126 298 127 
652 129 312 130 
653 299 315 93 
654 119 317 309 
655 119 309 120 
656 101 294 100 
657 109 295 108 
658 112 296 111 
659 98 308 97 
660 118 317 119 
661 122 301 123 
662 133 293 134 
663 83 303 82 
664 86 300 85 
665 87 319 86 
666 90 304 89 
667 301 316 123 
668 131 297 132 
669 136 313 137 
670 137 305 138 
671 139 310 140 
672 86 319 300 
673 90 320 304 
674 142 306 143 
675 144 311 145 
676 106 302 105 
677 107 318 106 
678 104 292 103 
679 91 320 90 
680 100 321 99 
681 294 321 100 
682 113 322 112 
683 82 323 81 
684 5 359 113 
685 148 358 7 
686 81 360 6 
687 8 361 116 
688 147 335 325 
689 324 347 117 
690 112 322 296 
691 303 323 82 
692 324 361 291 
693 290 358 325 
694 302 329 105 
695 295 345 108 
696 96 336 307 
697 98 332 308 
698 131 338 297 
699 305 328 138 
700 315 342 92 
701 293 326 134 
702 133 337 293 
703 316 350 124 
704 306 334 143 
705 122 341 301 
706 297 337 132 
707 126 331 298 
708 94 343 299 
709 83 348 303 
710 300 346 85 
711 118 347 317 
712 87 349 319 
713 309 340 120 
714 109 344 295 
715 312 338 130 
716 307 343 95 
717 129 339 312 
718 304 352 89 
719 298 351 127 
720 91 342 320 
721 308 336 97 
722 144 334 311 
723 314 335 146 
724 321 332 99 
725 136 333 313 
726 139 328 310 
727 107 345 318 
728 104 329 292 
729 296 353 111 
730 103 356 102 
731 140 354 141 
732 102 355 101 
733 141 357 142 
734 115 290 114 
735 149 291 150 
736 116 324 117 
737 147 325 148 
738 323 324 291 
739 290 325 322 
740 313 327 305 
741 146 335 147 
742 110 353 344 
743 110 344 109 
744 128 351 339 
745 318 330 302 
746 134 326 135 
747 130 338 131 
748 88 352 349 
749 138 328 139 
750 97 336 96 
751 125 331 126 
752 128 339 129 
753 99 332 98 
754 111 353 110 
755 120 340 121 
756 132 337 133 
757 95 343 94 
758 121 341 122 
759 340 341 121 
760 85 346 84 
761 88 349 87 
762 84 348 83 
763 346 348 84 
764 89 352 88 
765 92 342 91 
766 117 347 118 
767 143 334 144 
768 135 333 136 
769 125 350 331 
770 127 351 128 
771 124 350 125 
772 105 329 104 
773 326 333 135 
774 108 345 107 
775 141 354 330 
776 102 356 327 
777 327 355 102 
778 330 357 141 
779 116 361 324 
780 325 358 148 
781 115 358 290 
782 149 360 291 
783 291 361 150 
784 290 359 114 
785 310 354 140 
786 101 355 294 
787 292 356 103 
788 142 357 306 
789 150 361 8 
790 6 360 149 
791 7 358 115 
792 114 359 5 
793 318 357 330 
794 330 354 302 
795 313 355 327 
796 327 356 305 
$EndElements
