$MeshFormat
4.1 0 8
$EndMeshFormat
$Entities
8 10 3 0
1 0 0.008935032636624001 0 0 
2 0 0.008935032636624001 0.1 0 
3 0.0072284161474 0.003435032636624 0.1 0 
4 0.0072284161474 0.003435032636624 0 0 
5 0.008228416147400001 0.002435032636624 0.1 0 
6 0.008228416147400001 0.002435032636624 0 0 
7 0.01543303437366 0.002435032636624 0.1 0 
8 0.01543303437366 0.002435032636624 0 0 
1 -1e-07 0.008934932636624001 -1.000000000028756e-07 1e-07 0.008935132636624 0.1000001 0 2 1 -2 
2 -1.000000000015745e-07 0.003434932636624124 0.0999999 0.007228516147400446 0.008935132636623998 0.1000001 0 2 2 -3 
3 0.0072283161474 0.003434932636624 -1.000000000028756e-07 0.0072285161474 0.003435132636624 0.1000001 0 2 4 -3 
4 -1.000000000015745e-07 0.003434932636624124 -1e-07 0.007228516147400446 0.008935132636623998 1e-07 0 2 1 -4 
5 0.0072283161474 0.002434932636624 0.0999999 0.0082285161474 0.003435132636624 0.1000001 0 2 3 -5 
6 0.008228316147400001 0.002434932636624 -1.000000000028756e-07 0.0082285161474 0.002435132636624 0.1000001 0 2 6 -5 
7 0.0072283161474 0.002434932636624 -1e-07 0.0082285161474 0.003435132636624 1e-07 0 2 4 -6 
8 0.008228316147400001 0.002434932636624 0.0999999 0.01543313437366 0.002435132636624 0.1000001 0 2 5 -7 
9 0.01543293437366 0.002434932636624 -1.000000000028756e-07 0.01543313437366 0.002435132636624 0.1000001 0 2 8 -7 
10 0.008228316147400001 0.002434932636624 -1e-07 0.01543313437366 0.002435132636624 1e-07 0 2 6 -8 
1 -1.000000000015745e-07 0.003434932636624124 -1.000000000028756e-07 0.007228516147400446 0.008935132636623998 0.1000001 0 4 1 2 -3 -4 
2 0.0072283161474 0.002434932636624 -1.000000000028756e-07 0.0082285161474 0.003435132636624 0.1000001 0 4 3 5 -6 -7 
3 0.008228316147400001 0.002434932636624 -1.000000000028756e-07 0.01543313437366 0.002435132636624 0.1000001 0 4 6 8 -9 -10 
$EndEntities
$Nodes
21 361 1 361
0 1 0 1
1
0 0.008935032636624001 0
0 2 0 1
2
0 0.008935032636624001 0.1
0 3 0 1
3
0.0072284161474 0.003435032636624 0.1
0 4 0 1
4
0.0072284161474 0.003435032636624 0
0 5 0 1
5
0.008228416147400001 0.002435032636624 0.1
0 6 0 1
6
0.008228416147400001 0.002435032636624 0
0 7 0 1
7
0.01543303437366 0.002435032636624 0.1
0 8 0 1
8
0.01543303437366 0.002435032636624 0
1 1 0 33
9
10
11
12
13
14
15
16
17
18
19
20
21
22
23
24
25
26
27
28
29
30
31
32
33
34
35
36
37
38
39
40
41
0 0.008935032636624001 0.002941176470588237
0 0.008935032636624001 0.005882352941176475
0 0.008935032636624001 0.008823529411764711
0 0.008935032636624001 0.01176470588235295
0 0.008935032636624001 0.01470588235294119
0 0.008935032636624001 0.01764705882352942
0 0.008935032636624001 0.02058823529411766
0 0.008935032636624001 0.0235294117647059
0 0.008935032636624001 0.02647058823529414
0 0.008935032636624001 0.02941176470588238
0 0.008935032636624001 0.03235294117647062
0 0.008935032636624001 0.03529411764705885
0 0.008935032636624001 0.03823529411764708
0 0.008935032636624001 0.04117647058823532
0 0.008935032636624001 0.04411764705882355
0 0.008935032636624001 0.04705882352941179
0 0.008935032636624001 0.05000000000000002
0 0.008935032636624001 0.05294117647058825
0 0.008935032636624001 0.05588235294117648
0 0.008935032636624001 0.05882352941176471
0 0.008935032636624001 0.06176470588235293
0 0.008935032636624001 0.06470588235294117
0 0.008935032636624001 0.06764705882352941
0 0.008935032636624001 0.07058823529411762
0 0.008935032636624001 0.07352941176470586
0 0.008935032636624001 0.0764705882352941
0 0.008935032636624001 0.07941176470588233
0 0.008935032636624001 0.08235294117647057
0 0.008935032636624001 0.0852941176470588
0 0.008935032636624001 0.08823529411764704
0 0.008935032636624001 0.09117647058823528
0 0.008935032636624001 0.0941176470588235
0 0.008935032636624001 0.09705882352941174
1 2 0 3
42
43
44
0.00239635019887795 0.008541895919700268 0.1
0.004541475531146199 0.00740370082978069 0.1
0.006210488655333296 0.005639771708430526 0.1
1 3 0 33
45
46
47
48
49
50
51
52
53
54
55
56
57
58
59
60
61
62
63
64
65
66
67
68
69
70
71
72
73
74
75
76
77
0.0072284161474 0.003435032636624 0.002941176470588237
0.0072284161474 0.003435032636624 0.005882352941176475
0.0072284161474 0.003435032636624 0.008823529411764711
0.0072284161474 0.003435032636624 0.01176470588235295
0.0072284161474 0.003435032636624 0.01470588235294119
0.0072284161474 0.003435032636624 0.01764705882352942
0.0072284161474 0.003435032636624 0.02058823529411766
0.0072284161474 0.003435032636624 0.0235294117647059
0.0072284161474 0.003435032636624 0.02647058823529414
0.0072284161474 0.003435032636624 0.02941176470588238
0.0072284161474 0.003435032636624 0.03235294117647062
0.0072284161474 0.003435032636624 0.03529411764705885
0.0072284161474 0.003435032636624 0.03823529411764708
0.0072284161474 0.003435032636624 0.04117647058823532
0.0072284161474 0.003435032636624 0.04411764705882355
0.0072284161474 0.003435032636624 0.04705882352941179
0.0072284161474 0.003435032636624 0.05000000000000002
0.0072284161474 0.003435032636624 0.05294117647058825
0.0072284161474 0.003435032636624 0.05588235294117648
0.0072284161474 0.003435032636624 0.05882352941176471
0.0072284161474 0.003435032636624 0.06176470588235293
0.0072284161474 0.003435032636624 0.06470588235294117
0.0072284161474 0.003435032636624 0.06764705882352941
0.0072284161474 0.003435032636624 0.07058823529411762
0.0072284161474 0.003435032636624 0.07352941176470586
0.0072284161474 0.003435032636624 0.0764705882352941
0.0072284161474 0.003435032636624 0.07941176470588233
0.0072284161474 0.003435032636624 0.08235294117647057
0.0072284161474 0.003435032636624 0.0852941176470588
0.0072284161474 0.003435032636624 0.08823529411764704
0.0072284161474 0.003435032636624 0.09117647058823528
0.0072284161474 0.003435032636624 0.0941176470588235
0.0072284161474 0.003435032636624 0.09705882352941174
1 4 0 3
78
79
80
0.00239635019887795 0.008541895919700268 0
0.004541475531146199 0.00740370082978069 0
0.006210488655333296 0.005639771708430526 0
1 5 0 0
1 6 0 33
81
82
83
84
85
86
87
88
89
90
91
92
93
94
95
96
97
98
99
100
101
102
103
104
105
106
107
108
109
110
111
112
113
0.008228416147400001 0.002435032636624 0.002941176470588237
0.008228416147400001 0.002435032636624 0.005882352941176475
0.008228416147400001 0.002435032636624 0.008823529411764711
0.008228416147400001 0.002435032636624 0.01176470588235295
0.008228416147400001 0.002435032636624 0.01470588235294119
0.008228416147400001 0.002435032636624 0.01764705882352942
0.008228416147400001 0.002435032636624 0.02058823529411766
0.008228416147400001 0.002435032636624 0.0235294117647059
0.008228416147400001 0.002435032636624 0.02647058823529414
0.008228416147400001 0.002435032636624 0.02941176470588238
0.008228416147400001 0.002435032636624 0.03235294117647062
0.008228416147400001 0.002435032636624 0.03529411764705885
0.008228416147400001 0.002435032636624 0.03823529411764708
0.008228416147400001 0.002435032636624 0.04117647058823532
0.008228416147400001 0.002435032636624 0.04411764705882355
0.008228416147400001 0.002435032636624 0.04705882352941179
0.008228416147400001 0.002435032636624 0.05000000000000002
0.008228416147400001 0.002435032636624 0.05294117647058825
0.008228416147400001 0.002435032636624 0.05588235294117648
0.008228416147400001 0.002435032636624 0.05882352941176471
0.008228416147400001 0.002435032636624 0.06176470588235293
0.008228416147400001 0.002435032636624 0.06470588235294117
0.008228416147400001 0.002435032636624 0.06764705882352941
0.008228416147400001 0.002435032636624 0.07058823529411762
0.008228416147400001 0.002435032636624 0.07352941176470586
0.008228416147400001 0.002435032636624 0.0764705882352941
0.008228416147400001 0.002435032636624 0.07941176470588233
0.008228416147400001 0.002435032636624 0.08235294117647057
0.008228416147400001 0.002435032636624 0.0852941176470588
0.008228416147400001 0.002435032636624 0.08823529411764704
0.008228416147400001 0.002435032636624 0.09117647058823528
0.008228416147400001 0.002435032636624 0.0941176470588235
0.008228416147400001 0.002435032636624 0.09705882352941174
1 7 0 0
1 8 0 2
114
115
0.01062995555615333 0.002435032636624 0.1
0.01303149496490667 0.002435032636624 0.1
1 9 0 33
116
117
118
119
120
121
122
123
124
125
126
127
128
129
130
131
132
133
134
135
136
137
138
139
140
141
142
143
144
145
146
147
148
0.01543303437366 0.002435032636624 0.002941176470588237
0.01543303437366 0.002435032636624 0.005882352941176475
0.01543303437366 0.002435032636624 0.008823529411764711
0.01543303437366 0.002435032636624 0.01176470588235295
0.01543303437366 0.002435032636624 0.01470588235294119
0.01543303437366 0.002435032636624 0.01764705882352942
0.01543303437366 0.002435032636624 0.02058823529411766
0.01543303437366 0.002435032636624 0.0235294117647059
0.01543303437366 0.002435032636624 0.02647058823529414
0.01543303437366 0.002435032636624 0.02941176470588238
0.01543303437366 0.002435032636624 0.03235294117647062
0.01543303437366 0.002435032636624 0.03529411764705885
0.01543303437366 0.002435032636624 0.03823529411764708
0.01543303437366 0.002435032636624 0.04117647058823532
0.01543303437366 0.002435032636624 0.04411764705882355
0.01543303437366 0.002435032636624 0.04705882352941179
0.01543303437366 0.002435032636624 0.05000000000000002
0.01543303437366 0.002435032636624 0.05294117647058825
0.01543303437366 0.002435032636624 0.05588235294117648
0.01543303437366 0.002435032636624 0.05882352941176471
0.01543303437366 0.002435032636624 0.06176470588235293
0.01543303437366 0.002435032636624 0.06470588235294117
0.01543303437366 0.002435032636624 0.06764705882352941
0.01543303437366 0.002435032636624 0.07058823529411762
0.01543303437366 0.002435032636624 0.07352941176470586
0.01543303437366 0.002435032636624 0.0764705882352941
0.01543303437366 0.002435032636624 0.07941176470588233
0.01543303437366 0.002435032636624 0.08235294117647057
0.01543303437366 0.002435032636624 0.0852941176470588
0.01543303437366 0.002435032636624 0.08823529411764704
0.01543303437366 0.002435032636624 0.09117647058823528
0.01543303437366 0.002435032636624 0.0941176470588235
0.01543303437366 0.002435032636624 0.09705882352941174
1 10 0 2
149
150
0.01062995555615333 0.002435032636624 0
0.01303149496490667 0.002435032636624 0
2 1 0 105
151
152
153
154
155
156
157
158
159
160
161
162
163
164
165
166
167
168
169
170
171
172
173
174
175
176
177
178
179
180
181
182
183
184
185
186
187
188
189
190
191
192
193
194
195
196
197
198
199
200
201
202
203
204
205
206
207
208
209
210
211
212
213
214
215
216
217
218
219
220
221
222
223
224
225
226
227
228
229
230
231
232
233
234
235
236
237
238
239
240
241
242
243
244
245
246
247
248
249
250
251
252
253
254
255
0.002507258455267994 0.008503530004416334 0.06911763060909507
0.006142181392484641 0.005738938739435193 0.05441176470588237
0.002508601031865717 0.008503053637082491 0.0602976305833077
0.002510141544731256 0.008502506685066922 0.08382352941176469
0.002510141544731256 0.008502506685066922 0.09264705882352939
0.002510141544731262 0.008502506685066918 0.0485294117647059
0.006142181392484638 0.005738938739435198 0.01617647058823531
0.002510141544731262 0.008502506685066918 0.03382352941176474
0.002510141544731262 0.008502506685066918 0.0397058823529412
0.002507176110799816 0.008503559212186597 0.01029393101409873
0.002508601031865145 0.008503053637082694 0.02205531059316294
0.002510141544731269 0.008502506685066916 0.07499999999999998
0.002508698574776511 0.008503019016132261 0.02794117647058825
0.002510141544731281 0.008502506685066913 0.004411764705882356
0.006142181392480253 0.005738938739441456 0.007352941176470593
0.006142629725366027 0.005738298844639684 0.07205813353744681
0.006143936483909415 0.00573643292974795 0.06617381970750481
0.006142413098311746 0.005738608048962941 0.08088144863296456
0.006143110985447939 0.005737611795741105 0.08970135349208209
0.006142181392480258 0.00573893873944145 0.04558823529411767
0.006142181392480258 0.00573893873944145 0.09558823529411761
0.006142672042718138 0.005738238438768371 0.03088056119900418
0.006143936277007362 0.005736433225277993 0.03676207130409325
0.006143053522256792 0.005737693839029835 0.02499999912196751
0.005447847735860574 0.006589734863414487 0.002100714065736631
0.003515284978593565 0.008060194636098007 0.09789928593426334
0.002510141544723956 0.008502506685069515 0.05441176470588237
0.002510141544723962 0.008502506685069511 0.01617647058823531
0.006143119342152858 0.005737599864229797 0.06029060471078369
0.002507182962214684 0.008503556782015342 0.007352724443211978
0.00614765359091636 0.005731118683957454 0.01027782432640885
0.006138091023848898 0.005744770283273224 0.01321492304453895
0.006143085113953827 0.005737648734153373 0.09263874092983405
0.002507236894321512 0.008503537652237486 0.07205847794120242
0.006143040886102289 0.005737711880034506 0.08675951537999614
0.004436439802547105 0.007482180880083541 0.08823502970939567
0.002508668913196784 0.008503029544090787 0.05147325564660449
0.004730156127732327 0.007255309520697155 0.0500026661787563
0.006143078019908765 0.005737658862699628 0.03970321494163059
0.006143037731315269 0.005737716384197943 0.04265276951748047
0.004515662277664759 0.007423253924625598 0.04412402181170396
0.006143078019908761 0.005737658862699634 0.07499733258868935
0.006143152143161995 0.005737553031225771 0.0779452713342331
0.00452119684218371 0.007419076345875132 0.07932310285825324
0.00614392437828488 0.005736450220853268 0.02206031999763718
0.00250722698270474 0.008503541167933648 0.02499826458907206
0.002508346055869577 0.008503144128670764 0.03088181201007819
0.002508679250237586 0.008503025875120156 0.03676666524150257
0.002508668913196759 0.008503029544090795 0.01323262670633666
0.006142979650289976 0.00573779930658453 0.02794191875482676
0.006144140762693822 0.005736141131907997 0.06911839135477706
0.002510141544730911 0.008502506685067043 0.01911764705882354
0.006143921759894436 0.005736453960825533 0.01911878032607161
0.006142181392487053 0.00573893873943175 0.05735294117647059
0.002508668913196734 0.008503029544090804 0.05735560858778102
0.002507224799089967 0.008503541942469771 0.06323605143704412
0.00614218139248708 0.005738938739431712 0.08382352941176469
0.00614307801990878 0.005737658862699606 0.03382086200045408
0.006143078019908804 0.005737658862699574 0.06323262670633634
0.002505849119824796 0.008504029749982675 0.06617697993740727
0.006201616327239455 0.005652846635571442 0.004590542428278852
0.002411317621633401 0.008536831516316401 0.09540945757171877
0.004535616577028278 0.007408154288338979 0.006199710276583841
0.003515284978593565 0.008060194636098007 0.002100714065735321
0.005447847735860579 0.006589734863414483 0.09789928593426472
0.004549274126179282 0.007397758936302339 0.09411691576110361
0.00453404718299941 0.007409345663435963 0.008822873051845358
0.006211977845491775 0.005637571303563229 0.04843597286082381
0.002404409613449743 0.008539173289141408 0.04577949302648755
0.002404409613449743 0.008539173289141408 0.08107361067354633
0.004438324098126363 0.007480798030682126 0.08548561974622734
0.004438324098120848 0.007480798030686174 0.09098496848905943
0.004638931528822179 0.007328275739610634 0.0528590520471351
0.002403970516263159 0.008539321887276555 0.07774912553954312
0.00240397051626312 0.008539321887276567 0.04245500789248426
0.00453512877281004 0.00740852466508026 0.01470119540518181
0.004533906083553285 0.007409452744510498 0.04705855607259336
0.004549019074178504 0.007397953520113914 0.08235317212804044
0.002272911875495431 0.008582330839877578 0.08970566194787162
0.002272911875501113 0.008582330839875772 0.08676492628740971
0.004547599755718447 0.007399036028791841 0.05588490227032955
0.004535346521556182 0.007408359342020938 0.01764960815268878
0.004535346521556442 0.00740835934202074 0.07058568596495231
0.004535517743964614 0.007408229334723112 0.06764457040426365
0.004548663045772895 0.007398225111802045 0.03529518917220179
0.00454759975571368 0.007399036028795477 0.02941431403504143
0.004547599755713712 0.007399036028795452 0.0264680389061351
0.004535346521557009 0.007408359342020309 0.06470333302377579
0.004534094216704966 0.007409309968154783 0.02352941176469667
0.004548849906514127 0.007398082571682939 0.06176470588235192
0.004548849906513413 0.007398082571683485 0.02058823529411736
0.004534094216709688 0.0074093099681512 0.05882352941175548
0.00454856391506112 0.007398300726405295 0.03235497230415768
0.004548857524308916 0.007398076760520633 0.03823540919183507
0.004534569811497064 0.007408948992303872 0.07352793970264113
0.00628147983209277 0.005532960298139242 0.05147365981850559
0.004535349056306984 0.007408357417468865 0.04117131196707954
0.004535349056306999 0.007408357417468853 0.07646542961413831
0.004539324716700317 0.007405336742476028 0.01175694121106007
0.004541475531145468 0.007403700829781247 0.003792408331534112
0.004540877296223289 0.007404155970970835 0.09620450754797817
0.001782566395030275 0.008720117196689777 0.001953881155916394
0.006578899580611522 0.00503615472678278 0.001950519336346506
0.006545932010530002 0.005095739414490624 0.09804611884405637
0.001716347987205899 0.008736001722082058 0.09804948066365346
2 2 0 34
256
257
258
259
260
261
262
263
264
265
266
267
268
269
270
271
272
273
274
275
276
277
278
279
280
281
282
283
284
285
286
287
288
289
0.0077284161474 0.002935032636624 0.07499999999999997
0.0077284161474 0.002935032636624 0.08088235294117645
0.0077284161474 0.002935032636624 0.08970588235294116
0.0077284161474 0.002935032636624 0.09852941176470588
0.0077284161474 0.002935032636624 0.03676470588235296
0.0077284161474 0.002935032636624 0.0485294117647059
0.0077284161474 0.002935032636624 0.001470588235294119
0.0077284161474 0.002935032636624 0.004411764705882356
0.0077284161474 0.002935032636624 0.0308823529411765
0.0077284161474 0.002935032636624 0.0397058823529412
0.0077284161474 0.002935032636624 0.04558823529411767
0.0077284161474 0.002935032636624 0.05735294117647059
0.0077284161474 0.002935032636624 0.01323529411764707
0.0077284161474 0.002935032636624 0.02500000000000002
0.0077284161474 0.002935032636624 0.01029411764705883
0.0077284161474 0.002935032636624 0.007352941176470593
0.0077284161474 0.002935032636624 0.06029411764705882
0.0077284161474 0.002935032636624 0.02205882352941178
0.0077284161474 0.002935032636624 0.02794117647058826
0.0077284161474 0.002935032636624 0.01911764705882354
0.0077284161474 0.002935032636624 0.01617647058823531
0.0077284161474 0.002935032636624 0.05147058823529414
0.0077284161474 0.002935032636624 0.05441176470588237
0.0077284161474 0.002935032636624 0.03382352941176474
0.0077284161474 0.002935032636624 0.04264705882352944
0.0077284161474 0.002935032636624 0.06323529411764704
0.0077284161474 0.002935032636624 0.06617647058823529
0.0077284161474 0.002935032636624 0.07205882352941173
0.0077284161474 0.002935032636624 0.07794117647058821
0.0077284161474 0.002935032636624 0.08382352941176469
0.0077284161474 0.002935032636624 0.08676470588235291
0.0077284161474 0.002935032636624 0.09264705882352939
0.0077284161474 0.002935032636624 0.09558823529411761
0.0077284161474 0.002935032636624 0.06911764705882351
2 3 0 72
290
291
292
293
294
295
296
297
298
299
300
301
302
303
304
305
306
307
308
309
310
311
312
313
314
315
316
317
318
319
320
321
322
323
324
325
326
327
328
329
330
331
332
333
334
335
336
337
338
339
340
341
342
343
344
345
346
347
348
349
350
351
352
353
354
355
356
357
358
359
360
361
0.01186887627811936 0.002435032636624 0.0980377565783345
0.0118688762781193 0.002435032636624 0.001962243421665532
0.0108916983230308 0.002435032636624 0.0692224969793348
0.01288590083311754 0.002435032636624 0.05441176470588239
0.01090048825298023 0.002435032636624 0.06024062278965508
0.01077554968794246 0.002435032636624 0.0838235294117647
0.01061278726374789 0.002435032636624 0.09212712639037249
0.01288590083311754 0.002435032636624 0.04852941176470591
0.01288590083311754 0.002435032636624 0.03382352941176473
0.01062995555615334 0.002435032636624 0.04019607843137257
0.01077554968794246 0.002435032636624 0.01617647058823531
0.01303149496490666 0.002435032636624 0.0215686274509804
0.01094643511536097 0.002435032636624 0.07468506604587523
0.01061278726374786 0.002435032636624 0.007872873609627441
0.01077554968794247 0.002435032636624 0.02794117647058826
0.01273160806785451 0.002435032636624 0.06650638310243305
0.01276975219802922 0.002435032636624 0.08098720286168777
0.01077554968794246 0.002435032636624 0.04558823529411765
0.01077554968794246 0.002435032636624 0.05147058823529412
0.01288590083311753 0.002435032636624 0.01323529411764707
0.0128107570641016 0.002435032636624 0.07192396160409852
0.01303149496490666 0.002435032636624 0.08627450980392154
0.01288590083311754 0.002435032636624 0.04264705882352943
0.01271082194852399 0.002435032636624 0.06295984840020717
0.01288590083311748 0.002435032636624 0.08970588235294111
0.01077554968794248 0.002435032636624 0.03676470588235298
0.01288590083311752 0.002435032636624 0.025
0.01300436789420756 0.002435032636624 0.009890576974153598
0.01095425465712244 0.002435032636624 0.07822609841991104
0.01065422124478485 0.002435032636624 0.01952614379084968
0.01062995555615333 0.002435032636624 0.03137254901960786
0.01065077865032629 0.002435032636624 0.05685382928847194
0.01070313679257108 0.002435032636624 0.09546796041714398
0.01070313679257107 0.002435032636624 0.004532039582856019
0.01350113427562687 0.002435032636624 0.004023556971341828
0.01350113427562687 0.002435032636624 0.09597644302865815
0.01310661594170194 0.002435032636624 0.05775103613066823
0.01078932562592513 0.002435032636624 0.06470588235294118
0.01346002644046138 0.002435032636624 0.06917762716070268
0.01022114455945868 0.002435032636624 0.0719898343376264
0.01287212489513488 0.002435032636624 0.07647058823529417
0.01308232233183348 0.002435032636624 0.03047385620915035
0.01015381229323726 0.002435032636624 0.05431194232828264
0.01346527331763733 0.002435032636624 0.06030399684410939
0.01344511199016192 0.002435032636624 0.08376847996063325
0.01309483798539722 0.002435032636624 0.09309525497269575
0.01017876650076049 0.002435032636624 0.0485294117647059
0.01348268402029951 0.002435032636624 0.05147058823529414
0.01348268402029951 0.002435032636624 0.04558823529411767
0.01308232233183348 0.002435032636624 0.03929738562091505
0.01357279568696951 0.002435032636624 0.01617647058823531
0.01315002172198725 0.002435032636624 0.01861383442265796
0.01014964767440267 0.002435032636624 0.03392156862745101
0.01014964767440267 0.002435032636624 0.0427450980392157
0.01057912818922651 0.002435032636624 0.08717320261437905
0.01019127776757882 0.002435032636624 0.08096030731514328
0.01008865483409049 0.002435032636624 0.01323529411764707
0.0131145824955789 0.002435032636624 0.006837488248486679
0.01050809051999391 0.002435032636624 0.01080371235219881
0.01055890678203358 0.002435032636624 0.02253540305010894
0.0135219683200427 0.002435032636624 0.02785947712418303
0.0135219683200427 0.002435032636624 0.03668300653594774
0.01013543791957872 0.002435032636624 0.02509531590413945
0.01010692971617838 0.002435032636624 0.089683595212715
0.01340629491665581 0.002435032636624 0.07444455699551919
0.01028609308135279 0.002435032636624 0.06263765796909407
0.01026103290320298 0.002435032636624 0.06673037956774373
0.01340290865907314 0.002435032636624 0.07849049457612986
0.01385351485319458 0.002435032636624 0.09821460462728088
0.009931760184328757 0.002435032636624 0.09811290810497804
0.009931760184328741 0.002435032636624 0.001887091895021958
0.01385351485319457 0.002435032636624 0.00178539537271912
$EndNodes
$Elements
21 796 1 796
0 1 15 1
1 1 
0 2 15 1
2 2 
0 3 15 1
3 3 
0 4 15 1
4 4 
0 5 15 1
5 5 
0 6 15 1
6 6 
0 7 15 1
7 7 
0 8 15 1
8 8 
1 1 1 34
9 1 9 
10 9 10 
11 10 11 
12 11 12 
13 12 13 
14 13 14 
15 14 15 
16 15 16 
17 16 17 
18 17 18 
19 18 19 
20 19 20 
21 20 21 
22 21 22 
23 22 23 
24 23 24 
25 24 25 
26 25 26 
27 26 27 
28 27 28 
29 28 29 
30 29 30 
31 30 31 
32 31 32 
33 32 33 
34 33 34 
35 34 35 
36 35 36 
37 36 37 
38 37 38 
39 38 39 
40 39 40 
41 40 41 
42 41 2 
1 2 1 4
43 2 42 
44 42 43 
45 43 44 
46 44 3 
1 3 1 34
47 4 45 
48 45 46 
49 46 47 
50 47 48 
51 48 49 
52 49 50 
53 50 51 
54 51 52 
55 52 53 
56 53 54 
57 54 55 
58 55 56 
59 56 57 
60 57 58 
61 58 59 
62 59 60 
63 60 61 
64 61 62 
65 62 63 
66 63 64 
67 64 65 
68 65 66 
69 66 67 
70 67 68 
71 68 69 
72 69 70 
73 70 71 
74 71 72 
75 72 73 
76 73 74 
77 74 75 
78 75 76 
79 76 77 
80 77 3 
1 4 1 4
81 1 78 
82 78 79 
83 79 80 
84 80 4 
1 5 1 1
85 3 5 
1 6 1 34
86 6 81 
87 81 82 
88 82 83 
89 83 84 
90 84 85 
91 85 86 
92 86 87 
93 87 88 
94 88 89 
95 89 90 
96 90 91 
97 91 92 
98 92 93 
99 93 94 
100 94 95 
101 95 96 
102 96 97 
103 97 98 
104 98 99 
105 99 100 
106 100 101 
107 101 102 
108 102 103 
109 103 104 
110 104 105 
111 105 106 
112 106 107 
113 107 108 
114 108 109 
115 109 110 
116 110 111 
117 111 112 
118 112 113 
119 113 5 
1 7 1 1
120 4 6 
1 8 1 3
121 5 114 
122 114 115 
123 115 7 
1 9 1 34
124 8 116 
125 116 117 
126 117 118 
127 118 119 
128 119 120 
129 120 121 
130 121 122 
131 122 123 
132 123 124 
133 124 125 
134 125 126 
135 126 127 
136 127 128 
137 128 129 
138 129 130 
139 130 131 
140 131 132 
141 132 133 
142 133 134 
143 134 135 
144 135 136 
145 136 137 
146 137 138 
147 138 139 
148 139 140 
149 140 141 
150 141 142 
151 142 143 
152 143 144 
153 144 145 
154 145 146 
155 146 147 
156 147 148 
157 148 7 
1 10 1 3
158 6 149 
159 149 150 
160 150 8 
2 1 2 284
161 219 225 23 
162 220 224 35 
163 10 180 164 
164 191 225 219 
165 194 224 220 
166 10 164 9 
167 11 180 10 
168 160 180 11 
169 183 222 216 
170 46 165 47 
171 177 231 223 
172 49 182 157 
173 218 246 61 
174 207 228 221 
175 165 181 47 
176 48 182 49 
177 76 171 77 
178 181 182 48 
179 169 183 75 
180 59 190 170 
181 71 193 168 
182 76 183 171 
183 190 191 170 
184 193 194 168 
185 187 188 156 
186 66 209 167 
187 68 201 166 
188 56 208 173 
189 157 203 50 
190 32 184 151 
191 151 210 31 
192 163 196 17 
193 18 197 163 
194 20 198 158 
195 25 187 156 
196 27 205 177 
197 178 199 13 
198 70 193 71 
199 58 190 59 
200 75 183 76 
201 52 174 53 
202 59 170 60 
203 54 172 55 
204 64 179 65 
205 56 173 57 
206 66 167 67 
207 68 166 69 
208 71 168 72 
209 74 169 75 
210 185 186 169 
211 74 185 169 
212 174 200 53 
213 54 200 172 
214 73 185 74 
215 52 195 174 
216 64 204 179 
217 168 207 72 
218 30 206 29 
219 29 206 153 
220 62 152 63 
221 49 157 50 
222 53 200 54 
223 22 159 21 
224 16 161 15 
225 12 160 11 
226 18 163 17 
227 29 153 28 
228 37 154 36 
229 40 155 39 
230 25 156 24 
231 20 158 19 
232 34 162 33 
233 32 151 31 
234 161 202 15 
235 73 207 185 
236 15 202 14 
237 152 204 63 
238 14 202 178 
239 51 195 52 
240 63 204 64 
241 72 207 73 
242 14 178 13 
243 27 177 26 
244 31 210 30 
245 26 187 25 
246 17 196 16 
247 33 184 32 
248 19 197 18 
249 21 198 20 
250 13 199 12 
251 28 205 27 
252 57 189 58 
253 69 192 70 
254 50 203 51 
255 55 208 56 
256 67 201 68 
257 65 209 66 
258 192 193 70 
259 189 190 58 
260 173 189 57 
261 166 192 69 
262 167 201 67 
263 172 208 55 
264 179 209 65 
265 30 210 206 
266 162 184 33 
267 16 196 161 
268 158 197 19 
269 159 198 21 
270 12 199 160 
271 153 205 28 
272 51 203 195 
273 177 187 26 
274 47 181 48 
275 45 211 46 
276 41 212 40 
277 180 213 164 
278 216 222 155 
279 188 246 218 
280 221 228 154 
281 223 231 152 
282 169 222 183 
283 46 211 165 
284 60 218 61 
285 24 219 23 
286 36 220 35 
287 207 221 185 
288 35 224 34 
289 23 225 22 
290 193 248 194 
291 190 247 191 
292 191 227 170 
293 177 223 187 
294 188 227 156 
295 194 228 168 
296 155 229 39 
297 37 230 154 
298 62 246 152 
299 213 217 165 
300 180 217 213 
301 78 214 79 
302 40 212 155 
303 79 175 80 
304 44 215 43 
305 211 213 165 
306 165 217 181 
307 160 217 180 
308 43 176 42 
309 182 249 226 
310 182 226 157 
311 226 249 199 
312 218 227 188 
313 170 218 60 
314 220 228 194 
315 187 223 188 
316 154 220 36 
317 156 219 24 
318 9 252 1 
319 185 221 186 
320 186 222 169 
321 34 224 162 
322 22 225 159 
323 222 229 155 
324 154 230 221 
325 226 232 157 
326 236 237 163 
327 152 246 223 
328 217 249 181 
329 205 231 177 
330 157 232 203 
331 208 235 173 
332 201 233 166 
333 151 234 210 
334 163 237 196 
335 197 236 163 
336 209 238 167 
337 233 245 166 
338 194 248 224 
339 191 247 225 
340 195 239 174 
341 206 240 153 
342 161 241 202 
343 204 242 179 
344 186 230 229 
345 181 249 182 
346 197 243 236 
347 77 254 3 
348 159 244 198 
349 158 243 197 
350 166 245 192 
351 192 248 193 
352 189 247 190 
353 219 227 191 
354 198 244 235 
355 245 248 192 
356 211 253 175 
357 4 253 45 
358 235 244 173 
359 234 238 210 
360 201 234 233 
361 199 249 160 
362 240 242 153 
363 179 242 240 
364 195 241 239 
365 239 241 161 
366 167 238 234 
367 233 234 151 
368 178 232 226 
369 183 216 171 
370 174 239 237 
371 202 241 232 
372 231 242 204 
373 238 240 206 
374 237 239 196 
375 232 241 203 
376 205 242 231 
377 209 240 238 
378 235 243 158 
379 208 243 235 
380 200 237 236 
381 184 233 151 
382 198 235 158 
383 184 245 233 
384 178 226 199 
385 2 255 41 
386 159 247 244 
387 244 247 189 
388 202 232 178 
389 200 236 172 
390 174 237 200 
391 152 231 204 
392 61 246 62 
393 38 230 37 
394 39 229 38 
395 168 228 207 
396 210 238 206 
397 167 234 201 
398 229 230 38 
399 236 243 172 
400 153 242 205 
401 203 241 195 
402 196 239 161 
403 179 240 209 
404 162 245 184 
405 173 244 189 
406 172 243 208 
407 160 249 217 
408 162 248 245 
409 45 253 211 
410 212 216 155 
411 212 255 176 
412 41 255 212 
413 79 214 175 
414 170 227 218 
415 154 228 220 
416 186 229 222 
417 221 230 186 
418 223 246 188 
419 43 215 176 
420 1 252 78 
421 224 248 162 
422 225 247 159 
423 3 254 44 
424 156 227 219 
425 164 252 9 
426 80 253 4 
427 42 255 2 
428 175 250 211 
429 171 254 77 
430 176 251 212 
431 214 252 164 
432 211 250 213 
433 215 254 171 
434 212 251 216 
435 213 250 164 
436 164 250 214 
437 216 251 171 
438 171 251 215 
439 78 252 214 
440 175 253 80 
441 44 254 215 
442 176 255 42 
443 214 250 175 
444 215 251 176 
2 2 2 136
445 53 274 89 
446 77 259 113 
447 55 279 91 
448 49 276 85 
449 107 284 71 
450 113 288 77 
451 104 289 68 
452 112 287 76 
453 102 281 66 
454 66 282 102 
455 105 283 69 
456 74 258 110 
457 62 278 98 
458 63 267 99 
459 96 266 60 
460 98 277 62 
461 101 272 65 
462 60 261 96 
463 93 260 57 
464 52 269 88 
465 57 265 93 
466 106 256 70 
467 108 257 72 
468 110 286 74 
469 54 264 90 
470 48 268 84 
471 88 273 52 
472 82 263 46 
473 84 270 48 
474 4 262 6 
475 81 262 45 
476 87 275 51 
477 91 264 55 
478 58 280 94 
479 45 263 81 
480 46 271 82 
481 83 271 47 
482 50 275 86 
483 47 270 83 
484 85 268 49 
485 51 273 87 
486 56 260 92 
487 97 261 61 
488 73 286 109 
489 89 269 53 
490 71 257 107 
491 94 265 58 
492 95 280 59 
493 69 256 105 
494 72 285 108 
495 109 285 73 
496 64 272 100 
497 61 277 97 
498 59 266 95 
499 100 267 64 
500 99 278 63 
501 68 283 104 
502 103 282 67 
503 111 258 75 
504 65 281 101 
505 75 287 111 
506 67 289 103 
507 70 284 106 
508 76 288 112 
509 90 274 54 
510 86 276 50 
511 92 279 56 
512 5 259 3 
513 3 259 77 
514 45 262 4 
515 113 259 5 
516 6 262 81 
517 46 263 45 
518 47 271 46 
519 48 270 47 
520 49 268 48 
521 50 276 49 
522 51 275 50 
523 52 273 51 
524 53 269 52 
525 54 274 53 
526 55 264 54 
527 56 279 55 
528 57 260 56 
529 58 265 57 
530 59 280 58 
531 60 266 59 
532 61 261 60 
533 62 277 61 
534 63 278 62 
535 64 267 63 
536 65 272 64 
537 66 281 65 
538 67 282 66 
539 68 289 67 
540 69 283 68 
541 70 256 69 
542 71 284 70 
543 72 257 71 
544 73 285 72 
545 74 286 73 
546 75 258 74 
547 76 287 75 
548 77 288 76 
549 81 263 82 
550 82 271 83 
551 83 270 84 
552 84 268 85 
553 85 276 86 
554 86 275 87 
555 87 273 88 
556 88 269 89 
557 89 274 90 
558 90 264 91 
559 91 279 92 
560 92 260 93 
561 93 265 94 
562 94 280 95 
563 95 266 96 
564 96 261 97 
565 97 277 98 
566 98 278 99 
567 99 267 100 
568 100 272 101 
569 101 281 102 
570 102 282 103 
571 103 289 104 
572 104 283 105 
573 105 256 106 
574 106 284 107 
575 107 257 108 
576 108 285 109 
577 109 286 110 
578 110 258 111 
579 111 287 112 
580 112 288 113 
2 3 2 216
581 323 347 324 
582 325 335 322 
583 317 348 309 
584 309 348 346 
585 300 341 340 
586 299 339 315 
587 319 341 300 
588 349 352 316 
589 320 331 304 
590 301 349 316 
591 331 350 304 
592 339 351 315 
593 294 326 321 
594 294 333 326 
595 344 353 314 
596 311 344 314 
597 303 347 323 
598 322 335 296 
599 321 326 293 
600 310 329 302 
601 306 345 295 
602 295 334 306 
603 293 332 321 
604 308 332 293 
605 307 336 297 
606 293 337 308 
607 297 338 307 
608 298 331 320 
609 320 342 298 
610 298 342 315 
611 304 350 316 
612 315 351 298 
613 301 341 319 
614 292 328 305 
615 316 352 304 
616 319 349 301 
617 303 348 317 
618 300 340 309 
619 308 337 297 
620 309 346 300 
621 317 347 303 
622 307 338 312 
623 312 339 299 
624 299 343 312 
625 312 343 307 
626 297 336 308 
627 310 328 292 
628 295 344 311 
629 292 329 310 
630 311 334 295 
631 313 333 294 
632 318 345 306 
633 296 335 314 
634 314 353 296 
635 302 354 310 
636 305 356 292 
637 294 355 313 
638 306 357 318 
639 322 359 290 
640 291 360 323 
641 113 359 322 
642 323 360 81 
643 137 313 305 
644 145 314 146 
645 106 318 302 
646 93 315 92 
647 311 314 145 
648 123 316 124 
649 96 307 95 
650 94 299 93 
651 126 298 127 
652 129 312 130 
653 299 315 93 
654 119 317 309 
655 119 309 120 
656 101 294 100 
657 109 295 108 
658 112 296 111 
659 98 308 97 
660 118 317 119 
661 122 301 123 
662 133 293 134 
663 83 303 82 
664 86 300 85 
665 87 319 86 
666 90 304 89 
667 301 316 123 
668 131 297 132 
669 136 313 137 
670 137 305 138 
671 139 310 140 
672 86 319 300 
673 90 320 304 
674 142 306 143 
675 144 311 145 
676 106 302 105 
677 107 318 106 
678 104 292 103 
679 91 320 90 
680 100 321 99 
681 294 321 100 
682 113 322 112 
683 82 323 81 
684 5 359 113 
685 148 358 7 
686 81 360 6 
687 8 361 116 
688 147 335 325 
689 324 347 117 
690 112 322 296 
691 303 323 82 
692 324 361 291 
693 290 358 325 
694 302 329 105 
695 295 345 108 
696 96 336 307 
697 98 332 308 
698 131 338 297 
699 305 328 138 
700 315 342 92 
701 293 326 134 
702 133 337 293 
703 316 350 124 
704 306 334 143 
705 122 341 301 
706 297 337 132 
707 126 331 298 
708 94 343 299 
709 83 348 303 
710 300 346 85 
711 118 347 317 
712 87 349 319 
713 309 340 120 
714 109 344 295 
715 312 338 130 
716 307 343 95 
717 129 339 312 
718 304 352 89 
719 298 351 127 
720 91 342 320 
721 308 336 97 
722 144 334 311 
723 314 335 146 
724 321 332 99 
725 136 333 313 
726 139 328 310 
727 107 345 318 
728 104 329 292 
729 296 353 111 
730 103 356 102 
731 140 354 141 
732 102 355 101 
733 141 357 142 
734 115 290 114 
735 149 291 150 
736 116 324 117 
737 147 325 148 
738 323 324 291 
739 290 325 322 
740 313 327 305 
741 146 335 147 
742 110 353 344 
743 110 344 109 
744 128 351 339 
745 318 330 302 
746 134 326 135 
747 130 338 131 
748 88 352 349 
749 138 328 139 
750 97 336 96 
751 125 331 126 
752 128 339 129 
753 99 332 98 
754 111 353 110 
755 120 340 121 
756 132 337 133 
757 95 343 94 
758 121 341 122 
759 340 341 121 
760 85 346 84 
761 88 349 87 
762 84 348 83 
763 346 348 84 
764 89 352 88 
765 92 342 91 
766 117 347 118 
767 143 334 144 
768 135 333 136 
769 125 350 331 
770 127 351 128 
771 124 350 125 
772 105 329 104 
773 326 333 135 
774 108 345 107 
775 141 354 330 
776 102 356 327 
777 327 355 102 
778 330 357 141 
779 116 361 324 
780 325 358 148 
781 115 358 290 
782 149 360 291 
783 291 361 150 
784 290 359 114 
785 310 354 140 
786 101 355 294 
787 292 356 103 
788 142 357 306 
789 150 361 8 
790 6 360 149 
791 7 358 115 
792 114 359 5 
793 318 357 330 
794 330 354 302 
795 313 355 327 
796 327 356 305 
$EndElements
