$ WeldFormGUI NASTRAN export
BEGIN BULK
MAT1           1  2.1+11           3.0-1
PSHELL         1       1   1.0+0
GRID           1              0. 8.935-3      0.
GRID           2              0. 8.935-3   1.0-1
GRID           3         7.228-3 3.435-3   1.0-1
GRID           4         7.228-3 3.435-3      0.
GRID           5         8.228-3 2.435-3   1.0-1
GRID           6         8.228-3 2.435-3      0.
GRID           7         1.543-2 2.435-3   1.0-1
GRID           8         1.543-2 2.435-3      0.
GRID           9              0. 8.935-3 2.941-3
GRID          10              0. 8.935-3 5.882-3
GRID          11              0. 8.935-3 8.824-3
GRID          12              0. 8.935-3 1.176-2
GRID          13              0. 8.935-3 1.471-2
GRID          14              0. 8.935-3 1.765-2
GRID          15              0. 8.935-3 2.059-2
GRID          16              0. 8.935-3 2.353-2
GRID          17              0. 8.935-3 2.647-2
GRID          18              0. 8.935-3 2.941-2
GRID          19              0. 8.935-3 3.235-2
GRID          20              0. 8.935-3 3.529-2
GRID          21              0. 8.935-3 3.824-2
GRID          22              0. 8.935-3 4.118-2
GRID          23              0. 8.935-3 4.412-2
GRID          24              0. 8.935-3 4.706-2
GRID          25              0. 8.935-3   5.0-2
GRID          26              0. 8.935-3 5.294-2
GRID          27              0. 8.935-3 5.588-2
GRID          28              0. 8.935-3 5.882-2
GRID          29              0. 8.935-3 6.176-2
GRID          30              0. 8.935-3 6.471-2
GRID          31              0. 8.935-3 6.765-2
GRID          32              0. 8.935-3 7.059-2
GRID          33              0. 8.935-3 7.353-2
GRID          34              0. 8.935-3 7.647-2
GRID          35              0. 8.935-3 7.941-2
GRID          36              0. 8.935-3 8.235-2
GRID          37              0. 8.935-3 8.529-2
GRID          38              0. 8.935-3 8.824-2
GRID          39              0. 8.935-3 9.118-2
GRID          40              0. 8.935-3 9.412-2
GRID          41              0. 8.935-3 9.706-2
GRID          42         2.396-3 8.542-3   1.0-1
GRID          43         4.541-3 7.404-3   1.0-1
GRID          44          6.21-3  5.64-3   1.0-1
GRID          45         7.228-3 3.435-3 2.941-3
GRID          46         7.228-3 3.435-3 5.882-3
GRID          47         7.228-3 3.435-3 8.824-3
GRID          48         7.228-3 3.435-3 1.176-2
GRID          49         7.228-3 3.435-3 1.471-2
GRID          50         7.228-3 3.435-3 1.765-2
GRID          51         7.228-3 3.435-3 2.059-2
GRID          52         7.228-3 3.435-3 2.353-2
GRID          53         7.228-3 3.435-3 2.647-2
GRID          54         7.228-3 3.435-3 2.941-2
GRID          55         7.228-3 3.435-3 3.235-2
GRID          56         7.228-3 3.435-3 3.529-2
GRID          57         7.228-3 3.435-3 3.824-2
GRID          58         7.228-3 3.435-3 4.118-2
GRID          59         7.228-3 3.435-3 4.412-2
GRID          60         7.228-3 3.435-3 4.706-2
GRID          61         7.228-3 3.435-3   5.0-2
GRID          62         7.228-3 3.435-3 5.294-2
GRID          63         7.228-3 3.435-3 5.588-2
GRID          64         7.228-3 3.435-3 5.882-2
GRID          65         7.228-3 3.435-3 6.176-2
GRID          66         7.228-3 3.435-3 6.471-2
GRID          67         7.228-3 3.435-3 6.765-2
GRID          68         7.228-3 3.435-3 7.059-2
GRID          69         7.228-3 3.435-3 7.353-2
GRID          70         7.228-3 3.435-3 7.647-2
GRID          71         7.228-3 3.435-3 7.941-2
GRID          72         7.228-3 3.435-3 8.235-2
GRID          73         7.228-3 3.435-3 8.529-2
GRID          74         7.228-3 3.435-3 8.824-2
GRID          75         7.228-3 3.435-3 9.118-2
GRID          76         7.228-3 3.435-3 9.412-2
GRID          77         7.228-3 3.435-3 9.706-2
GRID          78         2.396-3 8.542-3      0.
GRID          79         4.541-3 7.404-3      0.
GRID          80          6.21-3  5.64-3      0.
GRID          81         8.228-3 2.435-3 2.941-3
GRID          82         8.228-3 2.435-3 5.882-3
GRID          83         8.228-3 2.435-3 8.824-3
GRID          84         8.228-3 2.435-3 1.176-2
GRID          85         8.228-3 2.435-3 1.471-2
GRID          86         8.228-3 2.435-3 1.765-2
GRID          87         8.228-3 2.435-3 2.059-2
GRID          88         8.228-3 2.435-3 2.353-2
GRID          89         8.228-3 2.435-3 2.647-2
GRID          90         8.228-3 2.435-3 2.941-2
GRID          91         8.228-3 2.435-3 3.235-2
GRID          92         8.228-3 2.435-3 3.529-2
GRID          93         8.228-3 2.435-3 3.824-2
GRID          94         8.228-3 2.435-3 4.118-2
GRID          95         8.228-3 2.435-3 4.412-2
GRID          96         8.228-3 2.435-3 4.706-2
GRID          97         8.228-3 2.435-3   5.0-2
GRID          98         8.228-3 2.435-3 5.294-2
GRID          99         8.228-3 2.435-3 5.588-2
GRID         100         8.228-3 2.435-3 5.882-2
GRID         101         8.228-3 2.435-3 6.176-2
GRID         102         8.228-3 2.435-3 6.471-2
GRID         103         8.228-3 2.435-3 6.765-2
GRID         104         8.228-3 2.435-3 7.059-2
GRID         105         8.228-3 2.435-3 7.353-2
GRID         106         8.228-3 2.435-3 7.647-2
GRID         107         8.228-3 2.435-3 7.941-2
GRID         108         8.228-3 2.435-3 8.235-2
GRID         109         8.228-3 2.435-3 8.529-2
GRID         110         8.228-3 2.435-3 8.824-2
GRID         111         8.228-3 2.435-3 9.118-2
GRID         112         8.228-3 2.435-3 9.412-2
GRID         113         8.228-3 2.435-3 9.706-2
GRID         114         1.063-2 2.435-3   1.0-1
GRID         115         1.303-2 2.435-3   1.0-1
GRID         116         1.543-2 2.435-3 2.941-3
GRID         117         1.543-2 2.435-3 5.882-3
GRID         118         1.543-2 2.435-3 8.824-3
GRID         119         1.543-2 2.435-3 1.176-2
GRID         120         1.543-2 2.435-3 1.471-2
GRID         121         1.543-2 2.435-3 1.765-2
GRID         122         1.543-2 2.435-3 2.059-2
GRID         123         1.543-2 2.435-3 2.353-2
GRID         124         1.543-2 2.435-3 2.647-2
GRID         125         1.543-2 2.435-3 2.941-2
GRID         126         1.543-2 2.435-3 3.235-2
GRID         127         1.543-2 2.435-3 3.529-2
GRID         128         1.543-2 2.435-3 3.824-2
GRID         129         1.543-2 2.435-3 4.118-2
GRID         130         1.543-2 2.435-3 4.412-2
GRID         131         1.543-2 2.435-3 4.706-2
GRID         132         1.543-2 2.435-3   5.0-2
GRID         133         1.543-2 2.435-3 5.294-2
GRID         134         1.543-2 2.435-3 5.588-2
GRID         135         1.543-2 2.435-3 5.882-2
GRID         136         1.543-2 2.435-3 6.176-2
GRID         137         1.543-2 2.435-3 6.471-2
GRID         138         1.543-2 2.435-3 6.765-2
GRID         139         1.543-2 2.435-3 7.059-2
GRID         140         1.543-2 2.435-3 7.353-2
GRID         141         1.543-2 2.435-3 7.647-2
GRID         142         1.543-2 2.435-3 7.941-2
GRID         143         1.543-2 2.435-3 8.235-2
GRID         144         1.543-2 2.435-3 8.529-2
GRID         145         1.543-2 2.435-3 8.824-2
GRID         146         1.543-2 2.435-3 9.118-2
GRID         147         1.543-2 2.435-3 9.412-2
GRID         148         1.543-2 2.435-3 9.706-2
GRID         149         1.063-2 2.435-3      0.
GRID         150         1.303-2 2.435-3      0.
GRID         151         2.507-3 8.504-3 6.912-2
GRID         152         6.142-3 5.739-3 5.441-2
GRID         153         2.509-3 8.503-3  6.03-2
GRID         154          2.51-3 8.503-3 8.382-2
GRID         155          2.51-3 8.503-3 9.265-2
GRID         156          2.51-3 8.503-3 4.853-2
GRID         157         6.142-3 5.739-3 1.618-2
GRID         158          2.51-3 8.503-3 3.382-2
GRID         159          2.51-3 8.503-3 3.971-2
GRID         160         2.507-3 8.504-3 1.029-2
GRID         161         2.509-3 8.503-3 2.206-2
GRID         162          2.51-3 8.503-3   7.5-2
GRID         163         2.509-3 8.503-3 2.794-2
GRID         164          2.51-3 8.503-3 4.412-3
GRID         165         6.142-3 5.739-3 7.353-3
GRID         166         6.143-3 5.738-3 7.206-2
GRID         167         6.144-3 5.736-3 6.617-2
GRID         168         6.142-3 5.739-3 8.088-2
GRID         169         6.143-3 5.738-3  8.97-2
GRID         170         6.142-3 5.739-3 4.559-2
GRID         171         6.142-3 5.739-3 9.559-2
GRID         172         6.143-3 5.738-3 3.088-2
GRID         173         6.144-3 5.736-3 3.676-2
GRID         174         6.143-3 5.738-3   2.5-2
GRID         175         5.448-3  6.59-3 2.101-3
GRID         176         3.515-3  8.06-3  9.79-2
GRID         177          2.51-3 8.503-3 5.441-2
GRID         178          2.51-3 8.503-3 1.618-2
GRID         179         6.143-3 5.738-3 6.029-2
GRID         180         2.507-3 8.504-3 7.353-3
GRID         181         6.148-3 5.731-3 1.028-2
GRID         182         6.138-3 5.745-3 1.321-2
GRID         183         6.143-3 5.738-3 9.264-2
GRID         184         2.507-3 8.504-3 7.206-2
GRID         185         6.143-3 5.738-3 8.676-2
GRID         186         4.436-3 7.482-3 8.824-2
GRID         187         2.509-3 8.503-3 5.147-2
GRID         188          4.73-3 7.255-3   5.0-2
GRID         189         6.143-3 5.738-3  3.97-2
GRID         190         6.143-3 5.738-3 4.265-2
GRID         191         4.516-3 7.423-3 4.412-2
GRID         192         6.143-3 5.738-3   7.5-2
GRID         193         6.143-3 5.738-3 7.795-2
GRID         194         4.521-3 7.419-3 7.932-2
GRID         195         6.144-3 5.736-3 2.206-2
GRID         196         2.507-3 8.504-3   2.5-2
GRID         197         2.508-3 8.503-3 3.088-2
GRID         198         2.509-3 8.503-3 3.677-2
GRID         199         2.509-3 8.503-3 1.323-2
GRID         200         6.143-3 5.738-3 2.794-2
GRID         201         6.144-3 5.736-3 6.912-2
GRID         202          2.51-3 8.503-3 1.912-2
GRID         203         6.144-3 5.736-3 1.912-2
GRID         204         6.142-3 5.739-3 5.735-2
GRID         205         2.509-3 8.503-3 5.736-2
GRID         206         2.507-3 8.504-3 6.324-2
GRID         207         6.142-3 5.739-3 8.382-2
GRID         208         6.143-3 5.738-3 3.382-2
GRID         209         6.143-3 5.738-3 6.323-2
GRID         210         2.506-3 8.504-3 6.618-2
GRID         211         6.202-3 5.653-3 4.591-3
GRID         212         2.411-3 8.537-3 9.541-2
GRID         213         4.536-3 7.408-3   6.2-3
GRID         214         3.515-3  8.06-3 2.101-3
GRID         215         5.448-3  6.59-3  9.79-2
GRID         216         4.549-3 7.398-3 9.412-2
GRID         217         4.534-3 7.409-3 8.823-3
GRID         218         6.212-3 5.638-3 4.844-2
GRID         219         2.404-3 8.539-3 4.578-2
GRID         220         2.404-3 8.539-3 8.107-2
GRID         221         4.438-3 7.481-3 8.549-2
GRID         222         4.438-3 7.481-3 9.098-2
GRID         223         4.639-3 7.328-3 5.286-2
GRID         224         2.404-3 8.539-3 7.775-2
GRID         225         2.404-3 8.539-3 4.246-2
GRID         226         4.535-3 7.409-3  1.47-2
GRID         227         4.534-3 7.409-3 4.706-2
GRID         228         4.549-3 7.398-3 8.235-2
GRID         229         2.273-3 8.582-3 8.971-2
GRID         230         2.273-3 8.582-3 8.676-2
GRID         231         4.548-3 7.399-3 5.588-2
GRID         232         4.535-3 7.408-3 1.765-2
GRID         233         4.535-3 7.408-3 7.059-2
GRID         234         4.536-3 7.408-3 6.764-2
GRID         235         4.549-3 7.398-3  3.53-2
GRID         236         4.548-3 7.399-3 2.941-2
GRID         237         4.548-3 7.399-3 2.647-2
GRID         238         4.535-3 7.408-3  6.47-2
GRID         239         4.534-3 7.409-3 2.353-2
GRID         240         4.549-3 7.398-3 6.176-2
GRID         241         4.549-3 7.398-3 2.059-2
GRID         242         4.534-3 7.409-3 5.882-2
GRID         243         4.549-3 7.398-3 3.235-2
GRID         244         4.549-3 7.398-3 3.824-2
GRID         245         4.535-3 7.409-3 7.353-2
GRID         246         6.281-3 5.533-3 5.147-2
GRID         247         4.535-3 7.408-3 4.117-2
GRID         248         4.535-3 7.408-3 7.647-2
GRID         249         4.539-3 7.405-3 1.176-2
GRID         250         4.541-3 7.404-3 3.792-3
GRID         251         4.541-3 7.404-3  9.62-2
GRID         252         1.783-3  8.72-3 1.954-3
GRID         253         6.579-3 5.036-3 1.951-3
GRID         254         6.546-3 5.096-3 9.805-2
GRID         255         1.716-3 8.736-3 9.805-2
GRID         256         7.728-3 2.935-3   7.5-2
GRID         257         7.728-3 2.935-3 8.088-2
GRID         258         7.728-3 2.935-3 8.971-2
GRID         259         7.728-3 2.935-3 9.853-2
GRID         260         7.728-3 2.935-3 3.676-2
GRID         261         7.728-3 2.935-3 4.853-2
GRID         262         7.728-3 2.935-3 1.471-3
GRID         263         7.728-3 2.935-3 4.412-3
GRID         264         7.728-3 2.935-3 3.088-2
GRID         265         7.728-3 2.935-3 3.971-2
GRID         266         7.728-3 2.935-3 4.559-2
GRID         267         7.728-3 2.935-3 5.735-2
GRID         268         7.728-3 2.935-3 1.324-2
GRID         269         7.728-3 2.935-3   2.5-2
GRID         270         7.728-3 2.935-3 1.029-2
GRID         271         7.728-3 2.935-3 7.353-3
GRID         272         7.728-3 2.935-3 6.029-2
GRID         273         7.728-3 2.935-3 2.206-2
GRID         274         7.728-3 2.935-3 2.794-2
GRID         275         7.728-3 2.935-3 1.912-2
GRID         276         7.728-3 2.935-3 1.618-2
GRID         277         7.728-3 2.935-3 5.147-2
GRID         278         7.728-3 2.935-3 5.441-2
GRID         279         7.728-3 2.935-3 3.382-2
GRID         280         7.728-3 2.935-3 4.265-2
GRID         281         7.728-3 2.935-3 6.324-2
GRID         282         7.728-3 2.935-3 6.618-2
GRID         283         7.728-3 2.935-3 7.206-2
GRID         284         7.728-3 2.935-3 7.794-2
GRID         285         7.728-3 2.935-3 8.382-2
GRID         286         7.728-3 2.935-3 8.676-2
GRID         287         7.728-3 2.935-3 9.265-2
GRID         288         7.728-3 2.935-3 9.559-2
GRID         289         7.728-3 2.935-3 6.912-2
GRID         290         1.187-2 2.435-3 9.804-2
GRID         291         1.187-2 2.435-3 1.962-3
GRID         292         1.089-2 2.435-3 6.922-2
GRID         293         1.289-2 2.435-3 5.441-2
GRID         294          1.09-2 2.435-3 6.024-2
GRID         295         1.078-2 2.435-3 8.382-2
GRID         296         1.061-2 2.435-3 9.213-2
GRID         297         1.289-2 2.435-3 4.853-2
GRID         298         1.289-2 2.435-3 3.382-2
GRID         299         1.063-2 2.435-3  4.02-2
GRID         300         1.078-2 2.435-3 1.618-2
GRID         301         1.303-2 2.435-3 2.157-2
GRID         302         1.095-2 2.435-3 7.469-2
GRID         303         1.061-2 2.435-3 7.873-3
GRID         304         1.078-2 2.435-3 2.794-2
GRID         305         1.273-2 2.435-3 6.651-2
GRID         306         1.277-2 2.435-3 8.099-2
GRID         307         1.078-2 2.435-3 4.559-2
GRID         308         1.078-2 2.435-3 5.147-2
GRID         309         1.289-2 2.435-3 1.324-2
GRID         310         1.281-2 2.435-3 7.192-2
GRID         311         1.303-2 2.435-3 8.627-2
GRID         312         1.289-2 2.435-3 4.265-2
GRID         313         1.271-2 2.435-3 6.296-2
GRID         314         1.289-2 2.435-3 8.971-2
GRID         315         1.078-2 2.435-3 3.676-2
GRID         316         1.289-2 2.435-3   2.5-2
GRID         317           1.3-2 2.435-3 9.891-3
GRID         318         1.095-2 2.435-3 7.823-2
GRID         319         1.065-2 2.435-3 1.953-2
GRID         320         1.063-2 2.435-3 3.137-2
GRID         321         1.065-2 2.435-3 5.685-2
GRID         322          1.07-2 2.435-3 9.547-2
GRID         323          1.07-2 2.435-3 4.532-3
GRID         324          1.35-2 2.435-3 4.024-3
GRID         325          1.35-2 2.435-3 9.598-2
GRID         326         1.311-2 2.435-3 5.775-2
GRID         327         1.079-2 2.435-3 6.471-2
GRID         328         1.346-2 2.435-3 6.918-2
GRID         329         1.022-2 2.435-3 7.199-2
GRID         330         1.287-2 2.435-3 7.647-2
GRID         331         1.308-2 2.435-3 3.047-2
GRID         332         1.015-2 2.435-3 5.431-2
GRID         333         1.347-2 2.435-3  6.03-2
GRID         334         1.345-2 2.435-3 8.377-2
GRID         335         1.309-2 2.435-3  9.31-2
GRID         336         1.018-2 2.435-3 4.853-2
GRID         337         1.348-2 2.435-3 5.147-2
GRID         338         1.348-2 2.435-3 4.559-2
GRID         339         1.308-2 2.435-3  3.93-2
GRID         340         1.357-2 2.435-3 1.618-2
GRID         341         1.315-2 2.435-3 1.861-2
GRID         342         1.015-2 2.435-3 3.392-2
GRID         343         1.015-2 2.435-3 4.275-2
GRID         344         1.058-2 2.435-3 8.717-2
GRID         345         1.019-2 2.435-3 8.096-2
GRID         346         1.009-2 2.435-3 1.324-2
GRID         347         1.311-2 2.435-3 6.837-3
GRID         348         1.051-2 2.435-3  1.08-2
GRID         349         1.056-2 2.435-3 2.254-2
GRID         350         1.352-2 2.435-3 2.786-2
GRID         351         1.352-2 2.435-3 3.668-2
GRID         352         1.014-2 2.435-3  2.51-2
GRID         353         1.011-2 2.435-3 8.968-2
GRID         354         1.341-2 2.435-3 7.444-2
GRID         355         1.029-2 2.435-3 6.264-2
GRID         356         1.026-2 2.435-3 6.673-2
GRID         357          1.34-2 2.435-3 7.849-2
GRID         358         1.385-2 2.435-3 9.821-2
GRID         359         9.932-3 2.435-3 9.811-2
GRID         360         9.932-3 2.435-3 1.887-3
GRID         361         1.385-2 2.435-3 1.785-3
CTRIA3         1       1     219     225      23
CTRIA3         2       1     220     224      35
CTRIA3         3       1      10     180     164
CTRIA3         4       1     191     225     219
CTRIA3         5       1     194     224     220
CTRIA3         6       1      10     164       9
CTRIA3         7       1      11     180      10
CTRIA3         8       1     160     180      11
CTRIA3         9       1     183     222     216
CTRIA3        10       1      46     165      47
CTRIA3        11       1     177     231     223
CTRIA3        12       1      49     182     157
CTRIA3        13       1     218     246      61
CTRIA3        14       1     207     228     221
CTRIA3        15       1     165     181      47
CTRIA3        16       1      48     182      49
CTRIA3        17       1      76     171      77
CTRIA3        18       1     181     182      48
CTRIA3        19       1     169     183      75
CTRIA3        20       1      59     190     170
CTRIA3        21       1      71     193     168
CTRIA3        22       1      76     183     171
CTRIA3        23       1     190     191     170
CTRIA3        24       1     193     194     168
CTRIA3        25       1     187     188     156
CTRIA3        26       1      66     209     167
CTRIA3        27       1      68     201     166
CTRIA3        28       1      56     208     173
CTRIA3        29       1     157     203      50
CTRIA3        30       1      32     184     151
CTRIA3        31       1     151     210      31
CTRIA3        32       1     163     196      17
CTRIA3        33       1      18     197     163
CTRIA3        34       1      20     198     158
CTRIA3        35       1      25     187     156
CTRIA3        36       1      27     205     177
CTRIA3        37       1     178     199      13
CTRIA3        38       1      70     193      71
CTRIA3        39       1      58     190      59
CTRIA3        40       1      75     183      76
CTRIA3        41       1      52     174      53
CTRIA3        42       1      59     170      60
CTRIA3        43       1      54     172      55
CTRIA3        44       1      64     179      65
CTRIA3        45       1      56     173      57
CTRIA3        46       1      66     167      67
CTRIA3        47       1      68     166      69
CTRIA3        48       1      71     168      72
CTRIA3        49       1      74     169      75
CTRIA3        50       1     185     186     169
CTRIA3        51       1      74     185     169
CTRIA3        52       1     174     200      53
CTRIA3        53       1      54     200     172
CTRIA3        54       1      73     185      74
CTRIA3        55       1      52     195     174
CTRIA3        56       1      64     204     179
CTRIA3        57       1     168     207      72
CTRIA3        58       1      30     206      29
CTRIA3        59       1      29     206     153
CTRIA3        60       1      62     152      63
CTRIA3        61       1      49     157      50
CTRIA3        62       1      53     200      54
CTRIA3        63       1      22     159      21
CTRIA3        64       1      16     161      15
CTRIA3        65       1      12     160      11
CTRIA3        66       1      18     163      17
CTRIA3        67       1      29     153      28
CTRIA3        68       1      37     154      36
CTRIA3        69       1      40     155      39
CTRIA3        70       1      25     156      24
CTRIA3        71       1      20     158      19
CTRIA3        72       1      34     162      33
CTRIA3        73       1      32     151      31
CTRIA3        74       1     161     202      15
CTRIA3        75       1      73     207     185
CTRIA3        76       1      15     202      14
CTRIA3        77       1     152     204      63
CTRIA3        78       1      14     202     178
CTRIA3        79       1      51     195      52
CTRIA3        80       1      63     204      64
CTRIA3        81       1      72     207      73
CTRIA3        82       1      14     178      13
CTRIA3        83       1      27     177      26
CTRIA3        84       1      31     210      30
CTRIA3        85       1      26     187      25
CTRIA3        86       1      17     196      16
CTRIA3        87       1      33     184      32
CTRIA3        88       1      19     197      18
CTRIA3        89       1      21     198      20
CTRIA3        90       1      13     199      12
CTRIA3        91       1      28     205      27
CTRIA3        92       1      57     189      58
CTRIA3        93       1      69     192      70
CTRIA3        94       1      50     203      51
CTRIA3        95       1      55     208      56
CTRIA3        96       1      67     201      68
CTRIA3        97       1      65     209      66
CTRIA3        98       1     192     193      70
CTRIA3        99       1     189     190      58
CTRIA3       100       1     173     189      57
CTRIA3       101       1     166     192      69
CTRIA3       102       1     167     201      67
CTRIA3       103       1     172     208      55
CTRIA3       104       1     179     209      65
CTRIA3       105       1      30     210     206
CTRIA3       106       1     162     184      33
CTRIA3       107       1      16     196     161
CTRIA3       108       1     158     197      19
CTRIA3       109       1     159     198      21
CTRIA3       110       1      12     199     160
CTRIA3       111       1     153     205      28
CTRIA3       112       1      51     203     195
CTRIA3       113       1     177     187      26
CTRIA3       114       1      47     181      48
CTRIA3       115       1      45     211      46
CTRIA3       116       1      41     212      40
CTRIA3       117       1     180     213     164
CTRIA3       118       1     216     222     155
CTRIA3       119       1     188     246     218
CTRIA3       120       1     221     228     154
CTRIA3       121       1     223     231     152
CTRIA3       122       1     169     222     183
CTRIA3       123       1      46     211     165
CTRIA3       124       1      60     218      61
CTRIA3       125       1      24     219      23
CTRIA3       126       1      36     220      35
CTRIA3       127       1     207     221     185
CTRIA3       128       1      35     224      34
CTRIA3       129       1      23     225      22
CTRIA3       130       1     193     248     194
CTRIA3       131       1     190     247     191
CTRIA3       132       1     191     227     170
CTRIA3       133       1     177     223     187
CTRIA3       134       1     188     227     156
CTRIA3       135       1     194     228     168
CTRIA3       136       1     155     229      39
CTRIA3       137       1      37     230     154
CTRIA3       138       1      62     246     152
CTRIA3       139       1     213     217     165
CTRIA3       140       1     180     217     213
CTRIA3       141       1      78     214      79
CTRIA3       142       1      40     212     155
CTRIA3       143       1      79     175      80
CTRIA3       144       1      44     215      43
CTRIA3       145       1     211     213     165
CTRIA3       146       1     165     217     181
CTRIA3       147       1     160     217     180
CTRIA3       148       1      43     176      42
CTRIA3       149       1     182     249     226
CTRIA3       150       1     182     226     157
CTRIA3       151       1     226     249     199
CTRIA3       152       1     218     227     188
CTRIA3       153       1     170     218      60
CTRIA3       154       1     220     228     194
CTRIA3       155       1     187     223     188
CTRIA3       156       1     154     220      36
CTRIA3       157       1     156     219      24
CTRIA3       158       1       9     252       1
CTRIA3       159       1     185     221     186
CTRIA3       160       1     186     222     169
CTRIA3       161       1      34     224     162
CTRIA3       162       1      22     225     159
CTRIA3       163       1     222     229     155
CTRIA3       164       1     154     230     221
CTRIA3       165       1     226     232     157
CTRIA3       166       1     236     237     163
CTRIA3       167       1     152     246     223
CTRIA3       168       1     217     249     181
CTRIA3       169       1     205     231     177
CTRIA3       170       1     157     232     203
CTRIA3       171       1     208     235     173
CTRIA3       172       1     201     233     166
CTRIA3       173       1     151     234     210
CTRIA3       174       1     163     237     196
CTRIA3       175       1     197     236     163
CTRIA3       176       1     209     238     167
CTRIA3       177       1     233     245     166
CTRIA3       178       1     194     248     224
CTRIA3       179       1     191     247     225
CTRIA3       180       1     195     239     174
CTRIA3       181       1     206     240     153
CTRIA3       182       1     161     241     202
CTRIA3       183       1     204     242     179
CTRIA3       184       1     186     230     229
CTRIA3       185       1     181     249     182
CTRIA3       186       1     197     243     236
CTRIA3       187       1      77     254       3
CTRIA3       188       1     159     244     198
CTRIA3       189       1     158     243     197
CTRIA3       190       1     166     245     192
CTRIA3       191       1     192     248     193
CTRIA3       192       1     189     247     190
CTRIA3       193       1     219     227     191
CTRIA3       194       1     198     244     235
CTRIA3       195       1     245     248     192
CTRIA3       196       1     211     253     175
CTRIA3       197       1       4     253      45
CTRIA3       198       1     235     244     173
CTRIA3       199       1     234     238     210
CTRIA3       200       1     201     234     233
CTRIA3       201       1     199     249     160
CTRIA3       202       1     240     242     153
CTRIA3       203       1     179     242     240
CTRIA3       204       1     195     241     239
CTRIA3       205       1     239     241     161
CTRIA3       206       1     167     238     234
CTRIA3       207       1     233     234     151
CTRIA3       208       1     178     232     226
CTRIA3       209       1     183     216     171
CTRIA3       210       1     174     239     237
CTRIA3       211       1     202     241     232
CTRIA3       212       1     231     242     204
CTRIA3       213       1     238     240     206
CTRIA3       214       1     237     239     196
CTRIA3       215       1     232     241     203
CTRIA3       216       1     205     242     231
CTRIA3       217       1     209     240     238
CTRIA3       218       1     235     243     158
CTRIA3       219       1     208     243     235
CTRIA3       220       1     200     237     236
CTRIA3       221       1     184     233     151
CTRIA3       222       1     198     235     158
CTRIA3       223       1     184     245     233
CTRIA3       224       1     178     226     199
CTRIA3       225       1       2     255      41
CTRIA3       226       1     159     247     244
CTRIA3       227       1     244     247     189
CTRIA3       228       1     202     232     178
CTRIA3       229       1     200     236     172
CTRIA3       230       1     174     237     200
CTRIA3       231       1     152     231     204
CTRIA3       232       1      61     246      62
CTRIA3       233       1      38     230      37
CTRIA3       234       1      39     229      38
CTRIA3       235       1     168     228     207
CTRIA3       236       1     210     238     206
CTRIA3       237       1     167     234     201
CTRIA3       238       1     229     230      38
CTRIA3       239       1     236     243     172
CTRIA3       240       1     153     242     205
CTRIA3       241       1     203     241     195
CTRIA3       242       1     196     239     161
CTRIA3       243       1     179     240     209
CTRIA3       244       1     162     245     184
CTRIA3       245       1     173     244     189
CTRIA3       246       1     172     243     208
CTRIA3       247       1     160     249     217
CTRIA3       248       1     162     248     245
CTRIA3       249       1      45     253     211
CTRIA3       250       1     212     216     155
CTRIA3       251       1     212     255     176
CTRIA3       252       1      41     255     212
CTRIA3       253       1      79     214     175
CTRIA3       254       1     170     227     218
CTRIA3       255       1     154     228     220
CTRIA3       256       1     186     229     222
CTRIA3       257       1     221     230     186
CTRIA3       258       1     223     246     188
CTRIA3       259       1      43     215     176
CTRIA3       260       1       1     252      78
CTRIA3       261       1     224     248     162
CTRIA3       262       1     225     247     159
CTRIA3       263       1       3     254      44
CTRIA3       264       1     156     227     219
CTRIA3       265       1     164     252       9
CTRIA3       266       1      80     253       4
CTRIA3       267       1      42     255       2
CTRIA3       268       1     175     250     211
CTRIA3       269       1     171     254      77
CTRIA3       270       1     176     251     212
CTRIA3       271       1     214     252     164
CTRIA3       272       1     211     250     213
CTRIA3       273       1     215     254     171
CTRIA3       274       1     212     251     216
CTRIA3       275       1     213     250     164
CTRIA3       276       1     164     250     214
CTRIA3       277       1     216     251     171
CTRIA3       278       1     171     251     215
CTRIA3       279       1      78     252     214
CTRIA3       280       1     175     253      80
CTRIA3       281       1      44     254     215
CTRIA3       282       1     176     255      42
CTRIA3       283       1     214     250     175
CTRIA3       284       1     215     251     176
CTRIA3       285       1      53     274      89
CTRIA3       286       1      77     259     113
CTRIA3       287       1      55     279      91
CTRIA3       288       1      49     276      85
CTRIA3       289       1     107     284      71
CTRIA3       290       1     113     288      77
CTRIA3       291       1     104     289      68
CTRIA3       292       1     112     287      76
CTRIA3       293       1     102     281      66
CTRIA3       294       1      66     282     102
CTRIA3       295       1     105     283      69
CTRIA3       296       1      74     258     110
CTRIA3       297       1      62     278      98
CTRIA3       298       1      63     267      99
CTRIA3       299       1      96     266      60
CTRIA3       300       1      98     277      62
CTRIA3       301       1     101     272      65
CTRIA3       302       1      60     261      96
CTRIA3       303       1      93     260      57
CTRIA3       304       1      52     269      88
CTRIA3       305       1      57     265      93
CTRIA3       306       1     106     256      70
CTRIA3       307       1     108     257      72
CTRIA3       308       1     110     286      74
CTRIA3       309       1      54     264      90
CTRIA3       310       1      48     268      84
CTRIA3       311       1      88     273      52
CTRIA3       312       1      82     263      46
CTRIA3       313       1      84     270      48
CTRIA3       314       1       4     262       6
CTRIA3       315       1      81     262      45
CTRIA3       316       1      87     275      51
CTRIA3       317       1      91     264      55
CTRIA3       318       1      58     280      94
CTRIA3       319       1      45     263      81
CTRIA3       320       1      46     271      82
CTRIA3       321       1      83     271      47
CTRIA3       322       1      50     275      86
CTRIA3       323       1      47     270      83
CTRIA3       324       1      85     268      49
CTRIA3       325       1      51     273      87
CTRIA3       326       1      56     260      92
CTRIA3       327       1      97     261      61
CTRIA3       328       1      73     286     109
CTRIA3       329       1      89     269      53
CTRIA3       330       1      71     257     107
CTRIA3       331       1      94     265      58
CTRIA3       332       1      95     280      59
CTRIA3       333       1      69     256     105
CTRIA3       334       1      72     285     108
CTRIA3       335       1     109     285      73
CTRIA3       336       1      64     272     100
CTRIA3       337       1      61     277      97
CTRIA3       338       1      59     266      95
CTRIA3       339       1     100     267      64
CTRIA3       340       1      99     278      63
CTRIA3       341       1      68     283     104
CTRIA3       342       1     103     282      67
CTRIA3       343       1     111     258      75
CTRIA3       344       1      65     281     101
CTRIA3       345       1      75     287     111
CTRIA3       346       1      67     289     103
CTRIA3       347       1      70     284     106
CTRIA3       348       1      76     288     112
CTRIA3       349       1      90     274      54
CTRIA3       350       1      86     276      50
CTRIA3       351       1      92     279      56
CTRIA3       352       1       5     259       3
CTRIA3       353       1       3     259      77
CTRIA3       354       1      45     262       4
CTRIA3       355       1     113     259       5
CTRIA3       356       1       6     262      81
CTRIA3       357       1      46     263      45
CTRIA3       358       1      47     271      46
CTRIA3       359       1      48     270      47
CTRIA3       360       1      49     268      48
CTRIA3       361       1      50     276      49
CTRIA3       362       1      51     275      50
CTRIA3       363       1      52     273      51
CTRIA3       364       1      53     269      52
CTRIA3       365       1      54     274      53
CTRIA3       366       1      55     264      54
CTRIA3       367       1      56     279      55
CTRIA3       368       1      57     260      56
CTRIA3       369       1      58     265      57
CTRIA3       370       1      59     280      58
CTRIA3       371       1      60     266      59
CTRIA3       372       1      61     261      60
CTRIA3       373       1      62     277      61
CTRIA3       374       1      63     278      62
CTRIA3       375       1      64     267      63
CTRIA3       376       1      65     272      64
CTRIA3       377       1      66     281      65
CTRIA3       378       1      67     282      66
CTRIA3       379       1      68     289      67
CTRIA3       380       1      69     283      68
CTRIA3       381       1      70     256      69
CTRIA3       382       1      71     284      70
CTRIA3       383       1      72     257      71
CTRIA3       384       1      73     285      72
CTRIA3       385       1      74     286      73
CTRIA3       386       1      75     258      74
CTRIA3       387       1      76     287      75
CTRIA3       388       1      77     288      76
CTRIA3       389       1      81     263      82
CTRIA3       390       1      82     271      83
CTRIA3       391       1      83     270      84
CTRIA3       392       1      84     268      85
CTRIA3       393       1      85     276      86
CTRIA3       394       1      86     275      87
CTRIA3       395       1      87     273      88
CTRIA3       396       1      88     269      89
CTRIA3       397       1      89     274      90
CTRIA3       398       1      90     264      91
CTRIA3       399       1      91     279      92
CTRIA3       400       1      92     260      93
CTRIA3       401       1      93     265      94
CTRIA3       402       1      94     280      95
CTRIA3       403       1      95     266      96
CTRIA3       404       1      96     261      97
CTRIA3       405       1      97     277      98
CTRIA3       406       1      98     278      99
CTRIA3       407       1      99     267     100
CTRIA3       408       1     100     272     101
CTRIA3       409       1     101     281     102
CTRIA3       410       1     102     282     103
CTRIA3       411       1     103     289     104
CTRIA3       412       1     104     283     105
CTRIA3       413       1     105     256     106
CTRIA3       414       1     106     284     107
CTRIA3       415       1     107     257     108
CTRIA3       416       1     108     285     109
CTRIA3       417       1     109     286     110
CTRIA3       418       1     110     258     111
CTRIA3       419       1     111     287     112
CTRIA3       420       1     112     288     113
CTRIA3       421       1     323     347     324
CTRIA3       422       1     325     335     322
CTRIA3       423       1     317     348     309
CTRIA3       424       1     309     348     346
CTRIA3       425       1     300     341     340
CTRIA3       426       1     299     339     315
CTRIA3       427       1     319     341     300
CTRIA3       428       1     349     352     316
CTRIA3       429       1     320     331     304
CTRIA3       430       1     301     349     316
CTRIA3       431       1     331     350     304
CTRIA3       432       1     339     351     315
CTRIA3       433       1     294     326     321
CTRIA3       434       1     294     333     326
CTRIA3       435       1     344     353     314
CTRIA3       436       1     311     344     314
CTRIA3       437       1     303     347     323
CTRIA3       438       1     322     335     296
CTRIA3       439       1     321     326     293
CTRIA3       440       1     310     329     302
CTRIA3       441       1     306     345     295
CTRIA3       442       1     295     334     306
CTRIA3       443       1     293     332     321
CTRIA3       444       1     308     332     293
CTRIA3       445       1     307     336     297
CTRIA3       446       1     293     337     308
CTRIA3       447       1     297     338     307
CTRIA3       448       1     298     331     320
CTRIA3       449       1     320     342     298
CTRIA3       450       1     298     342     315
CTRIA3       451       1     304     350     316
CTRIA3       452       1     315     351     298
CTRIA3       453       1     301     341     319
CTRIA3       454       1     292     328     305
CTRIA3       455       1     316     352     304
CTRIA3       456       1     319     349     301
CTRIA3       457       1     303     348     317
CTRIA3       458       1     300     340     309
CTRIA3       459       1     308     337     297
CTRIA3       460       1     309     346     300
CTRIA3       461       1     317     347     303
CTRIA3       462       1     307     338     312
CTRIA3       463       1     312     339     299
CTRIA3       464       1     299     343     312
CTRIA3       465       1     312     343     307
CTRIA3       466       1     297     336     308
CTRIA3       467       1     310     328     292
CTRIA3       468       1     295     344     311
CTRIA3       469       1     292     329     310
CTRIA3       470       1     311     334     295
CTRIA3       471       1     313     333     294
CTRIA3       472       1     318     345     306
CTRIA3       473       1     296     335     314
CTRIA3       474       1     314     353     296
CTRIA3       475       1     302     354     310
CTRIA3       476       1     305     356     292
CTRIA3       477       1     294     355     313
CTRIA3       478       1     306     357     318
CTRIA3       479       1     322     359     290
CTRIA3       480       1     291     360     323
CTRIA3       481       1     113     359     322
CTRIA3       482       1     323     360      81
CTRIA3       483       1     137     313     305
CTRIA3       484       1     145     314     146
CTRIA3       485       1     106     318     302
CTRIA3       486       1      93     315      92
CTRIA3       487       1     311     314     145
CTRIA3       488       1     123     316     124
CTRIA3       489       1      96     307      95
CTRIA3       490       1      94     299      93
CTRIA3       491       1     126     298     127
CTRIA3       492       1     129     312     130
CTRIA3       493       1     299     315      93
CTRIA3       494       1     119     317     309
CTRIA3       495       1     119     309     120
CTRIA3       496       1     101     294     100
CTRIA3       497       1     109     295     108
CTRIA3       498       1     112     296     111
CTRIA3       499       1      98     308      97
CTRIA3       500       1     118     317     119
CTRIA3       501       1     122     301     123
CTRIA3       502       1     133     293     134
CTRIA3       503       1      83     303      82
CTRIA3       504       1      86     300      85
CTRIA3       505       1      87     319      86
CTRIA3       506       1      90     304      89
CTRIA3       507       1     301     316     123
CTRIA3       508       1     131     297     132
CTRIA3       509       1     136     313     137
CTRIA3       510       1     137     305     138
CTRIA3       511       1     139     310     140
CTRIA3       512       1      86     319     300
CTRIA3       513       1      90     320     304
CTRIA3       514       1     142     306     143
CTRIA3       515       1     144     311     145
CTRIA3       516       1     106     302     105
CTRIA3       517       1     107     318     106
CTRIA3       518       1     104     292     103
CTRIA3       519       1      91     320      90
CTRIA3       520       1     100     321      99
CTRIA3       521       1     294     321     100
CTRIA3       522       1     113     322     112
CTRIA3       523       1      82     323      81
CTRIA3       524       1       5     359     113
CTRIA3       525       1     148     358       7
CTRIA3       526       1      81     360       6
CTRIA3       527       1       8     361     116
CTRIA3       528       1     147     335     325
CTRIA3       529       1     324     347     117
CTRIA3       530       1     112     322     296
CTRIA3       531       1     303     323      82
CTRIA3       532       1     324     361     291
CTRIA3       533       1     290     358     325
CTRIA3       534       1     302     329     105
CTRIA3       535       1     295     345     108
CTRIA3       536       1      96     336     307
CTRIA3       537       1      98     332     308
CTRIA3       538       1     131     338     297
CTRIA3       539       1     305     328     138
CTRIA3       540       1     315     342      92
CTRIA3       541       1     293     326     134
CTRIA3       542       1     133     337     293
CTRIA3       543       1     316     350     124
CTRIA3       544       1     306     334     143
CTRIA3       545       1     122     341     301
CTRIA3       546       1     297     337     132
CTRIA3       547       1     126     331     298
CTRIA3       548       1      94     343     299
CTRIA3       549       1      83     348     303
CTRIA3       550       1     300     346      85
CTRIA3       551       1     118     347     317
CTRIA3       552       1      87     349     319
CTRIA3       553       1     309     340     120
CTRIA3       554       1     109     344     295
CTRIA3       555       1     312     338     130
CTRIA3       556       1     307     343      95
CTRIA3       557       1     129     339     312
CTRIA3       558       1     304     352      89
CTRIA3       559       1     298     351     127
CTRIA3       560       1      91     342     320
CTRIA3       561       1     308     336      97
CTRIA3       562       1     144     334     311
CTRIA3       563       1     314     335     146
CTRIA3       564       1     321     332      99
CTRIA3       565       1     136     333     313
CTRIA3       566       1     139     328     310
CTRIA3       567       1     107     345     318
CTRIA3       568       1     104     329     292
CTRIA3       569       1     296     353     111
CTRIA3       570       1     103     356     102
CTRIA3       571       1     140     354     141
CTRIA3       572       1     102     355     101
CTRIA3       573       1     141     357     142
CTRIA3       574       1     115     290     114
CTRIA3       575       1     149     291     150
CTRIA3       576       1     116     324     117
CTRIA3       577       1     147     325     148
CTRIA3       578       1     323     324     291
CTRIA3       579       1     290     325     322
CTRIA3       580       1     313     327     305
CTRIA3       581       1     146     335     147
CTRIA3       582       1     110     353     344
CTRIA3       583       1     110     344     109
CTRIA3       584       1     128     351     339
CTRIA3       585       1     318     330     302
CTRIA3       586       1     134     326     135
CTRIA3       587       1     130     338     131
CTRIA3       588       1      88     352     349
CTRIA3       589       1     138     328     139
CTRIA3       590       1      97     336      96
CTRIA3       591       1     125     331     126
CTRIA3       592       1     128     339     129
CTRIA3       593       1      99     332      98
CTRIA3       594       1     111     353     110
CTRIA3       595       1     120     340     121
CTRIA3       596       1     132     337     133
CTRIA3       597       1      95     343      94
CTRIA3       598       1     121     341     122
CTRIA3       599       1     340     341     121
CTRIA3       600       1      85     346      84
CTRIA3       601       1      88     349      87
CTRIA3       602       1      84     348      83
CTRIA3       603       1     346     348      84
CTRIA3       604       1      89     352      88
CTRIA3       605       1      92     342      91
CTRIA3       606       1     117     347     118
CTRIA3       607       1     143     334     144
CTRIA3       608       1     135     333     136
CTRIA3       609       1     125     350     331
CTRIA3       610       1     127     351     128
CTRIA3       611       1     124     350     125
CTRIA3       612       1     105     329     104
CTRIA3       613       1     326     333     135
CTRIA3       614       1     108     345     107
CTRIA3       615       1     141     354     330
CTRIA3       616       1     102     356     327
CTRIA3       617       1     327     355     102
CTRIA3       618       1     330     357     141
CTRIA3       619       1     116     361     324
CTRIA3       620       1     325     358     148
CTRIA3       621       1     115     358     290
CTRIA3       622       1     149     360     291
CTRIA3       623       1     291     361     150
CTRIA3       624       1     290     359     114
CTRIA3       625       1     310     354     140
CTRIA3       626       1     101     355     294
CTRIA3       627       1     292     356     103
CTRIA3       628       1     142     357     306
CTRIA3       629       1     150     361       8
CTRIA3       630       1       6     360     149
CTRIA3       631       1       7     358     115
CTRIA3       632       1     114     359       5
CTRIA3       633       1     318     357     330
CTRIA3       634       1     330     354     302
CTRIA3       635       1     313     355     327
CTRIA3       636       1     327     356     305
ENDDATA
