$ WeldFormGUI NASTRAN export
BEGIN BULK
MAT1           1  2.1+11           3.0-1
PSHELL         1       1   1.0+0
GRID           1              0.-8.943-3      0.
GRID           2         7.228-3-3.443-3      0.
GRID           3         7.228-3-3.443-3   1.0-1
GRID           4              0.-8.943-3   1.0-1
GRID           5         8.228-3-2.443-3   1.0-1
GRID           6         8.228-3-2.443-3      0.
GRID           7         1.543-2-2.443-3   1.0-1
GRID           8         1.543-2-2.443-3      0.
GRID           9         2.396-3 -8.55-3      0.
GRID          10         4.541-3-7.412-3      0.
GRID          11          6.21-3-5.648-3      0.
GRID          12         7.228-3-3.443-3 2.941-3
GRID          13         7.228-3-3.443-3 5.882-3
GRID          14         7.228-3-3.443-3 8.824-3
GRID          15         7.228-3-3.443-3 1.176-2
GRID          16         7.228-3-3.443-3 1.471-2
GRID          17         7.228-3-3.443-3 1.765-2
GRID          18         7.228-3-3.443-3 2.059-2
GRID          19         7.228-3-3.443-3 2.353-2
GRID          20         7.228-3-3.443-3 2.647-2
GRID          21         7.228-3-3.443-3 2.941-2
GRID          22         7.228-3-3.443-3 3.235-2
GRID          23         7.228-3-3.443-3 3.529-2
GRID          24         7.228-3-3.443-3 3.824-2
GRID          25         7.228-3-3.443-3 4.118-2
GRID          26         7.228-3-3.443-3 4.412-2
GRID          27         7.228-3-3.443-3 4.706-2
GRID          28         7.228-3-3.443-3   5.0-2
GRID          29         7.228-3-3.443-3 5.294-2
GRID          30         7.228-3-3.443-3 5.588-2
GRID          31         7.228-3-3.443-3 5.882-2
GRID          32         7.228-3-3.443-3 6.176-2
GRID          33         7.228-3-3.443-3 6.471-2
GRID          34         7.228-3-3.443-3 6.765-2
GRID          35         7.228-3-3.443-3 7.059-2
GRID          36         7.228-3-3.443-3 7.353-2
GRID          37         7.228-3-3.443-3 7.647-2
GRID          38         7.228-3-3.443-3 7.941-2
GRID          39         7.228-3-3.443-3 8.235-2
GRID          40         7.228-3-3.443-3 8.529-2
GRID          41         7.228-3-3.443-3 8.824-2
GRID          42         7.228-3-3.443-3 9.118-2
GRID          43         7.228-3-3.443-3 9.412-2
GRID          44         7.228-3-3.443-3 9.706-2
GRID          45         2.396-3 -8.55-3   1.0-1
GRID          46         4.541-3-7.412-3   1.0-1
GRID          47          6.21-3-5.648-3   1.0-1
GRID          48              0.-8.943-3 2.941-3
GRID          49              0.-8.943-3 5.882-3
GRID          50              0.-8.943-3 8.824-3
GRID          51              0.-8.943-3 1.176-2
GRID          52              0.-8.943-3 1.471-2
GRID          53              0.-8.943-3 1.765-2
GRID          54              0.-8.943-3 2.059-2
GRID          55              0.-8.943-3 2.353-2
GRID          56              0.-8.943-3 2.647-2
GRID          57              0.-8.943-3 2.941-2
GRID          58              0.-8.943-3 3.235-2
GRID          59              0.-8.943-3 3.529-2
GRID          60              0.-8.943-3 3.824-2
GRID          61              0.-8.943-3 4.118-2
GRID          62              0.-8.943-3 4.412-2
GRID          63              0.-8.943-3 4.706-2
GRID          64              0.-8.943-3   5.0-2
GRID          65              0.-8.943-3 5.294-2
GRID          66              0.-8.943-3 5.588-2
GRID          67              0.-8.943-3 5.882-2
GRID          68              0.-8.943-3 6.176-2
GRID          69              0.-8.943-3 6.471-2
GRID          70              0.-8.943-3 6.765-2
GRID          71              0.-8.943-3 7.059-2
GRID          72              0.-8.943-3 7.353-2
GRID          73              0.-8.943-3 7.647-2
GRID          74              0.-8.943-3 7.941-2
GRID          75              0.-8.943-3 8.235-2
GRID          76              0.-8.943-3 8.529-2
GRID          77              0.-8.943-3 8.824-2
GRID          78              0.-8.943-3 9.118-2
GRID          79              0.-8.943-3 9.412-2
GRID          80              0.-8.943-3 9.706-2
GRID          81         8.228-3-2.443-3 2.941-3
GRID          82         8.228-3-2.443-3 5.882-3
GRID          83         8.228-3-2.443-3 8.824-3
GRID          84         8.228-3-2.443-3 1.176-2
GRID          85         8.228-3-2.443-3 1.471-2
GRID          86         8.228-3-2.443-3 1.765-2
GRID          87         8.228-3-2.443-3 2.059-2
GRID          88         8.228-3-2.443-3 2.353-2
GRID          89         8.228-3-2.443-3 2.647-2
GRID          90         8.228-3-2.443-3 2.941-2
GRID          91         8.228-3-2.443-3 3.235-2
GRID          92         8.228-3-2.443-3 3.529-2
GRID          93         8.228-3-2.443-3 3.824-2
GRID          94         8.228-3-2.443-3 4.118-2
GRID          95         8.228-3-2.443-3 4.412-2
GRID          96         8.228-3-2.443-3 4.706-2
GRID          97         8.228-3-2.443-3   5.0-2
GRID          98         8.228-3-2.443-3 5.294-2
GRID          99         8.228-3-2.443-3 5.588-2
GRID         100         8.228-3-2.443-3 5.882-2
GRID         101         8.228-3-2.443-3 6.176-2
GRID         102         8.228-3-2.443-3 6.471-2
GRID         103         8.228-3-2.443-3 6.765-2
GRID         104         8.228-3-2.443-3 7.059-2
GRID         105         8.228-3-2.443-3 7.353-2
GRID         106         8.228-3-2.443-3 7.647-2
GRID         107         8.228-3-2.443-3 7.941-2
GRID         108         8.228-3-2.443-3 8.235-2
GRID         109         8.228-3-2.443-3 8.529-2
GRID         110         8.228-3-2.443-3 8.824-2
GRID         111         8.228-3-2.443-3 9.118-2
GRID         112         8.228-3-2.443-3 9.412-2
GRID         113         8.228-3-2.443-3 9.706-2
GRID         114         1.063-2-2.443-3   1.0-1
GRID         115         1.303-2-2.443-3   1.0-1
GRID         116         1.543-2-2.443-3 2.941-3
GRID         117         1.543-2-2.443-3 5.882-3
GRID         118         1.543-2-2.443-3 8.824-3
GRID         119         1.543-2-2.443-3 1.176-2
GRID         120         1.543-2-2.443-3 1.471-2
GRID         121         1.543-2-2.443-3 1.765-2
GRID         122         1.543-2-2.443-3 2.059-2
GRID         123         1.543-2-2.443-3 2.353-2
GRID         124         1.543-2-2.443-3 2.647-2
GRID         125         1.543-2-2.443-3 2.941-2
GRID         126         1.543-2-2.443-3 3.235-2
GRID         127         1.543-2-2.443-3 3.529-2
GRID         128         1.543-2-2.443-3 3.824-2
GRID         129         1.543-2-2.443-3 4.118-2
GRID         130         1.543-2-2.443-3 4.412-2
GRID         131         1.543-2-2.443-3 4.706-2
GRID         132         1.543-2-2.443-3   5.0-2
GRID         133         1.543-2-2.443-3 5.294-2
GRID         134         1.543-2-2.443-3 5.588-2
GRID         135         1.543-2-2.443-3 5.882-2
GRID         136         1.543-2-2.443-3 6.176-2
GRID         137         1.543-2-2.443-3 6.471-2
GRID         138         1.543-2-2.443-3 6.765-2
GRID         139         1.543-2-2.443-3 7.059-2
GRID         140         1.543-2-2.443-3 7.353-2
GRID         141         1.543-2-2.443-3 7.647-2
GRID         142         1.543-2-2.443-3 7.941-2
GRID         143         1.543-2-2.443-3 8.235-2
GRID         144         1.543-2-2.443-3 8.529-2
GRID         145         1.543-2-2.443-3 8.824-2
GRID         146         1.543-2-2.443-3 9.118-2
GRID         147         1.543-2-2.443-3 9.412-2
GRID         148         1.543-2-2.443-3 9.706-2
GRID         149         1.063-2-2.443-3      0.
GRID         150         1.303-2-2.443-3      0.
GRID         151         2.507-3-8.512-3 6.911-2
GRID         152         2.509-3-8.511-3 5.441-2
GRID         153         6.144-3-5.745-3  6.03-2
GRID         154         6.142-3-5.747-3 8.382-2
GRID         155         6.142-3-5.747-3 9.265-2
GRID         156         2.509-3-8.511-3 4.853-2
GRID         157         6.143-3-5.746-3 3.383-2
GRID         158         6.142-3-5.747-3 4.265-2
GRID         159         6.142-3-5.747-3 1.618-2
GRID         160         6.142-3-5.747-3 1.029-2
GRID         161         6.142-3-5.747-3   2.5-2
GRID         162         6.142-3-5.747-3 7.794-2
GRID         163          2.51-3-8.511-3 4.412-3
GRID         164          2.51-3-8.511-3 3.971-2
GRID         165          2.51-3-8.511-3 6.324-2
GRID         166         2.509-3-8.511-3 8.088-2
GRID         167          2.51-3-8.511-3 8.676-2
GRID         168          2.51-3-8.511-3 9.559-2
GRID         169         2.509-3-8.511-3 1.912-2
GRID         170          2.51-3-8.511-3 3.088-2
GRID         171          2.51-3-8.511-3 1.324-2
GRID         172         2.509-3-8.511-3   7.5-2
GRID         173         6.142-3-5.747-3 5.147-2
GRID         174         6.142-3-5.747-3 7.206-2
GRID         175         6.143-3-5.746-3 6.618-2
GRID         176         5.448-3-6.598-3 2.101-3
GRID         177         5.448-3-6.598-3  9.79-2
GRID         178         2.509-3-8.511-3 2.499-2
GRID         179         2.484-3 -8.52-3 7.305-3
GRID         180         4.642-3-7.334-3 6.264-3
GRID         181         2.525-3-8.505-3 1.023-2
GRID         182          2.51-3-8.511-3 9.265-2
GRID         183         2.509-3-8.511-3  8.97-2
GRID         184          4.73-3-7.264-3 8.824-2
GRID         185         2.509-3-8.511-3 6.029-2
GRID         186         6.142-3-5.747-3   7.5-2
GRID         187         2.508-3-8.512-3 5.147-2
GRID         188         6.143-3-5.746-3 6.911-2
GRID         189         2.507-3-8.512-3 7.206-2
GRID         190         6.143-3-5.746-3 3.971-2
GRID         191         6.143-3-5.745-3 3.677-2
GRID         192         4.521-3-7.427-3 3.538-2
GRID         193         2.508-3-8.511-3 2.206-2
GRID         194         4.645-3-7.332-3 2.059-2
GRID         195         2.509-3-8.511-3 4.264-2
GRID         196         2.508-3-8.511-3 4.559-2
GRID         197         4.562-3-7.397-3 4.697-2
GRID         198         6.143-3-5.746-3 8.088-2
GRID         199         6.143-3-5.745-3 2.794-2
GRID         200         6.144-3-5.745-3 3.088-2
GRID         201         2.509-3-8.511-3 2.794-2
GRID         202         6.142-3-5.747-3 5.441-2
GRID         203         2.509-3-8.511-3 1.618-2
GRID         204         2.508-3-8.512-3 7.794-2
GRID         205         6.143-3-5.746-3 1.323-2
GRID         206         6.144-3-5.744-3 6.324-2
GRID         207         6.144-3-5.745-3 5.735-2
GRID         208         2.508-3-8.512-3 5.735-2
GRID         209         2.508-3-8.511-3 6.617-2
GRID         210          2.51-3-8.511-3 8.382-2
GRID         211         6.202-3-5.661-3 9.541-2
GRID         212         3.506-3-8.073-3 2.107-3
GRID         213         3.515-3-8.068-3  9.79-2
GRID         214          4.61-3-7.359-3 8.654-3
GRID         215         6.302-3-5.509-3 4.412-3
GRID         216         6.257-3-5.578-3  7.32-3
GRID         217         4.534-3-7.418-3 9.412-2
GRID         218         4.632-3-7.342-3 9.111-2
GRID         219         6.212-3-5.645-3 8.668-2
GRID         220         2.404-3-8.547-3 3.363-2
GRID         221         6.206-3-5.655-3 4.872-2
GRID         222         4.643-3-7.333-3 2.334-2
GRID         223         4.643-3-7.333-3 1.784-2
GRID         224         2.404-3-8.548-3 3.696-2
GRID         225         6.206-3-5.655-3  4.54-2
GRID         226         4.538-3-7.415-3 1.174-2
GRID         227         6.282-3-5.541-3 8.971-2
GRID         228         4.534-3-7.418-3 8.529-2
GRID         229         4.534-3-7.418-3   5.0-2
GRID         230         4.549-3-7.406-3 3.235-2
GRID         231         6.282-3 -5.54-3 1.912-2
GRID         232         6.282-3 -5.54-3 2.206-2
GRID         233         4.548-3-7.407-3 6.764-2
GRID         234         4.547-3-7.407-3 7.059-2
GRID         235         4.547-3-7.407-3 7.353-2
GRID         236         4.549-3-7.406-3 6.176-2
GRID         237         4.534-3-7.418-3 8.235-2
GRID         238         4.535-3-7.417-3  1.47-2
GRID         239         4.548-3-7.407-3 7.647-2
GRID         240         4.535-3-7.417-3 5.588-2
GRID         241         4.548-3-7.407-3 2.941-2
GRID         242         4.549-3-7.406-3 5.882-2
GRID         243         4.534-3-7.418-3 2.647-2
GRID         244         4.534-3-7.417-3 5.294-2
GRID         245         4.548-3-7.407-3  6.47-2
GRID         246         4.549-3-7.406-3 4.118-2
GRID         247         4.534-3-7.418-3 7.941-2
GRID         248         4.548-3-7.407-3 4.411-2
GRID         249         4.535-3-7.417-3 3.824-2
GRID         250          4.54-3-7.413-3 3.797-3
GRID         251         4.542-3-7.411-3  9.62-2
GRID         252         1.769-3-8.732-3 1.945-3
GRID         253         6.603-3  -5.0-3 1.884-3
GRID         254         1.783-3-8.728-3 9.805-2
GRID         255         6.579-3-5.044-3 9.805-2
GRID         256         7.728-3-2.943-3 6.618-2
GRID         257         7.728-3-2.943-3   7.5-2
GRID         258         7.728-3-2.943-3 8.088-2
GRID         259         7.728-3-2.943-3 8.971-2
GRID         260         7.728-3-2.943-3 5.735-2
GRID         261         7.728-3-2.943-3 1.471-3
GRID         262         7.728-3-2.943-3 4.412-3
GRID         263         7.728-3-2.943-3 3.088-2
GRID         264         7.728-3-2.943-3 1.324-2
GRID         265         7.728-3-2.943-3 3.971-2
GRID         266         7.728-3-2.943-3 4.559-2
GRID         267         7.728-3-2.943-3 7.353-3
GRID         268         7.728-3-2.943-3   2.5-2
GRID         269         7.728-3-2.943-3 1.029-2
GRID         270         7.728-3-2.943-3 2.794-2
GRID         271         7.728-3-2.943-3 6.029-2
GRID         272         7.728-3-2.943-3 1.912-2
GRID         273         7.728-3-2.943-3 2.206-2
GRID         274         7.728-3-2.943-3 1.618-2
GRID         275         7.728-3-2.943-3 5.147-2
GRID         276         7.728-3-2.943-3 5.441-2
GRID         277         7.728-3-2.943-3 3.676-2
GRID         278         7.728-3-2.943-3 3.382-2
GRID         279         7.728-3-2.943-3 4.853-2
GRID         280         7.728-3-2.943-3 8.676-2
GRID         281         7.728-3-2.943-3 4.265-2
GRID         282         7.728-3-2.943-3 6.324-2
GRID         283         7.728-3-2.943-3 7.206-2
GRID         284         7.728-3-2.943-3 7.794-2
GRID         285         7.728-3-2.943-3 8.382-2
GRID         286         7.728-3-2.943-3 9.265-2
GRID         287         7.728-3-2.943-3 9.853-2
GRID         288         7.728-3-2.943-3 9.559-2
GRID         289         7.728-3-2.943-3 6.912-2
GRID         290         1.187-2-2.443-3 9.804-2
GRID         291         1.187-2-2.443-3 1.962-3
GRID         292         1.089-2-2.443-3 6.922-2
GRID         293         1.289-2-2.443-3 5.441-2
GRID         294          1.09-2-2.443-3 6.024-2
GRID         295         1.078-2-2.443-3 8.382-2
GRID         296         1.061-2-2.443-3 9.213-2
GRID         297         1.289-2-2.443-3 4.853-2
GRID         298         1.289-2-2.443-3 3.382-2
GRID         299         1.063-2-2.443-3  4.02-2
GRID         300         1.078-2-2.443-3 1.618-2
GRID         301         1.303-2-2.443-3 2.157-2
GRID         302         1.095-2-2.443-3 7.469-2
GRID         303         1.061-2-2.443-3 7.873-3
GRID         304         1.078-2-2.443-3 2.794-2
GRID         305         1.273-2-2.443-3 6.651-2
GRID         306         1.277-2-2.443-3 8.099-2
GRID         307         1.078-2-2.443-3 4.559-2
GRID         308         1.078-2-2.443-3 5.147-2
GRID         309         1.289-2-2.443-3 1.324-2
GRID         310         1.281-2-2.443-3 7.192-2
GRID         311         1.303-2-2.443-3 8.627-2
GRID         312         1.289-2-2.443-3 4.265-2
GRID         313         1.271-2-2.443-3 6.296-2
GRID         314         1.289-2-2.443-3 8.971-2
GRID         315         1.078-2-2.443-3 3.676-2
GRID         316         1.289-2-2.443-3   2.5-2
GRID         317           1.3-2-2.443-3 9.891-3
GRID         318         1.095-2-2.443-3 7.823-2
GRID         319         1.065-2-2.443-3 1.953-2
GRID         320         1.063-2-2.443-3 3.137-2
GRID         321         1.065-2-2.443-3 5.685-2
GRID         322          1.07-2-2.443-3 9.547-2
GRID         323          1.07-2-2.443-3 4.532-3
GRID         324          1.35-2-2.443-3 4.024-3
GRID         325          1.35-2-2.443-3 9.598-2
GRID         326         1.311-2-2.443-3 5.775-2
GRID         327         1.079-2-2.443-3 6.471-2
GRID         328         1.346-2-2.443-3 6.918-2
GRID         329         1.022-2-2.443-3 7.199-2
GRID         330         1.287-2-2.443-3 7.647-2
GRID         331         1.308-2-2.443-3 3.047-2
GRID         332         1.015-2-2.443-3 5.431-2
GRID         333         1.347-2-2.443-3  6.03-2
GRID         334         1.345-2-2.443-3 8.377-2
GRID         335         1.309-2-2.443-3  9.31-2
GRID         336         1.018-2-2.443-3 4.853-2
GRID         337         1.348-2-2.443-3 5.147-2
GRID         338         1.348-2-2.443-3 4.559-2
GRID         339         1.308-2-2.443-3  3.93-2
GRID         340         1.357-2-2.443-3 1.618-2
GRID         341         1.315-2-2.443-3 1.861-2
GRID         342         1.015-2-2.443-3 3.392-2
GRID         343         1.015-2-2.443-3 4.275-2
GRID         344         1.058-2-2.443-3 8.717-2
GRID         345         1.019-2-2.443-3 8.096-2
GRID         346         1.009-2-2.443-3 1.324-2
GRID         347         1.311-2-2.443-3 6.837-3
GRID         348         1.051-2-2.443-3  1.08-2
GRID         349         1.056-2-2.443-3 2.254-2
GRID         350         1.352-2-2.443-3 2.786-2
GRID         351         1.352-2-2.443-3 3.668-2
GRID         352         1.014-2-2.443-3  2.51-2
GRID         353         1.011-2-2.443-3 8.968-2
GRID         354         1.341-2-2.443-3 7.444-2
GRID         355         1.029-2-2.443-3 6.264-2
GRID         356         1.026-2-2.443-3 6.673-2
GRID         357          1.34-2-2.443-3 7.849-2
GRID         358         1.385-2-2.443-3 9.821-2
GRID         359         9.932-3-2.443-3 9.811-2
GRID         360         9.932-3-2.443-3 1.887-3
GRID         361         1.385-2-2.443-3 1.785-3
CTRIA3         1       1     221     225      27
CTRIA3         2       1     220     224      59
CTRIA3         3       1      51     181     171
CTRIA3         4       1     197     225     221
CTRIA3         5       1     192     224     220
CTRIA3         6       1      48     163      49
CTRIA3         7       1     163     179      49
CTRIA3         8       1      50     181      51
CTRIA3         9       1     203     238     223
CTRIA3        10       1     179     181      50
CTRIA3        11       1      41     227     219
CTRIA3        12       1     182     218     217
CTRIA3        13       1     222     243     178
CTRIA3        14       1     163     180     179
CTRIA3        15       1      79     182     168
CTRIA3        16       1      79     168      80
CTRIA3        17       1      63     196     156
CTRIA3        18       1      23     191     157
CTRIA3        19       1      49     179      50
CTRIA3        20       1     196     197     156
CTRIA3        21       1     191     192     157
CTRIA3        22       1      78     183     182
CTRIA3        23       1      30     207     202
CTRIA3        24       1      72     189     172
CTRIA3        25       1     172     204      73
CTRIA3        26       1      57     201     170
CTRIA3        27       1      53     203     169
CTRIA3        28       1      70     209     151
CTRIA3        29       1     156     187      64
CTRIA3        30       1     154     198      39
CTRIA3        31       1     157     200      22
CTRIA3        32       1     159     205      16
CTRIA3        33       1      32     206     153
CTRIA3        34       1     174     188      35
CTRIA3        35       1      78     182      79
CTRIA3        36       1      62     196      63
CTRIA3        37       1      24     191      23
CTRIA3        38       1      30     202      29
CTRIA3        39       1      74     166      75
CTRIA3        40       1      68     165      69
CTRIA3        41       1      55     178      56
CTRIA3        42       1      60     164      61
CTRIA3        43       1      57     170      58
CTRIA3        44       1      51     171      52
CTRIA3        45       1      53     169      54
CTRIA3        46       1      76     167      77
CTRIA3        47       1      72     172      73
CTRIA3        48       1      55     193     178
CTRIA3        49       1     169     193      54
CTRIA3        50       1     169     194     193
CTRIA3        51       1      54     193      55
CTRIA3        52       1      29     202     173
CTRIA3        53       1      21     199      20
CTRIA3        54       1      37     186      36
CTRIA3        55       1      68     185     165
CTRIA3        56       1      76     210     167
CTRIA3        57       1     166     210      75
CTRIA3        58       1     162     186      37
CTRIA3        59       1      20     199     161
CTRIA3        60       1      65     152      66
CTRIA3        61       1      63     156      64
CTRIA3        62       1      70     151      71
CTRIA3        63       1      20     161      19
CTRIA3        64       1      15     160      14
CTRIA3        65       1      32     153      31
CTRIA3        66       1      40     154      39
CTRIA3        67       1      43     155      42
CTRIA3        68       1      17     159      16
CTRIA3        69       1      23     157      22
CTRIA3        70       1      26     158      25
CTRIA3        71       1      38     162      37
CTRIA3        72       1     152     208      66
CTRIA3        73       1      36     186     174
CTRIA3        74       1      66     208      67
CTRIA3        75       1      67     208     185
CTRIA3        76       1      67     185      68
CTRIA3        77       1      75     210      76
CTRIA3        78       1      29     173      28
CTRIA3        79       1      34     175      33
CTRIA3        80       1      36     174      35
CTRIA3        81       1      77     183      78
CTRIA3        82       1      33     206      32
CTRIA3        83       1      16     205      15
CTRIA3        84       1      22     200      21
CTRIA3        85       1      25     190      24
CTRIA3        86       1      35     188      34
CTRIA3        87       1      39     198      38
CTRIA3        88       1      31     207      30
CTRIA3        89       1      61     195      62
CTRIA3        90       1      64     187      65
CTRIA3        91       1      56     201      57
CTRIA3        92       1      52     203      53
CTRIA3        93       1      69     209      70
CTRIA3        94       1      73     204      74
CTRIA3        95       1      71     189      72
CTRIA3        96       1     190     191      24
CTRIA3        97       1     195     196      62
CTRIA3        98       1     167     184     183
CTRIA3        99       1     167     183      77
CTRIA3       100       1     164     195      61
CTRIA3       101       1     178     201      56
CTRIA3       102       1     171     203      52
CTRIA3       103       1     165     209      69
CTRIA3       104       1      21     200     199
CTRIA3       105       1      74     204     166
CTRIA3       106       1      15     205     160
CTRIA3       107       1     158     190      25
CTRIA3       108       1      38     198     162
CTRIA3       109       1     153     207      31
CTRIA3       110       1      65     187     152
CTRIA3       111       1     151     189      71
CTRIA3       112       1     175     206      33
CTRIA3       113       1      34     188     175
CTRIA3       114       1     214     226     181
CTRIA3       115       1      44     211      43
CTRIA3       116       1     160     216      14
CTRIA3       117       1     215     216     180
CTRIA3       118       1     223     238     159
CTRIA3       119       1     217     218     155
CTRIA3       120       1     219     227     184
CTRIA3       121       1     161     243     222
CTRIA3       122       1     203     223     169
CTRIA3       123       1     183     218     182
CTRIA3       124       1     160     226     214
CTRIA3       125       1     179     214     181
CTRIA3       126       1      41     219      40
CTRIA3       127       1      58     220      59
CTRIA3       128       1      28     221      27
CTRIA3       129       1     193     222     178
CTRIA3       130       1      59     224      60
CTRIA3       131       1      27     225      26
CTRIA3       132       1     196     248     197
CTRIA3       133       1     191     249     192
CTRIA3       134       1     197     229     156
CTRIA3       135       1     192     230     157
CTRIA3       136       1      17     231     159
CTRIA3       137       1     161     232      19
CTRIA3       138       1     167     228     184
CTRIA3       139       1     155     227      42
CTRIA3       140       1      10     212       9
CTRIA3       141       1      43     211     155
CTRIA3       142       1     214     216     160
CTRIA3       143       1     181     226     171
CTRIA3       144       1      11     176      10
CTRIA3       145       1     180     214     179
CTRIA3       146       1      45     213      46
CTRIA3       147       1      46     177      47
CTRIA3       148       1      14     216      13
CTRIA3       149       1      13     216     215
CTRIA3       150       1      13     215      12
CTRIA3       151       1     205     238     226
CTRIA3       152       1     184     218     183
CTRIA3       153       1      40     219     154
CTRIA3       154       1     221     229     197
CTRIA3       155       1     220     230     192
CTRIA3       156       1     170     220      58
CTRIA3       157       1     173     221      28
CTRIA3       158       1     194     222     193
CTRIA3       159       1     169     223     194
CTRIA3       160       1     184     228     219
CTRIA3       161       1      60     224     164
CTRIA3       162       1      26     225     158
CTRIA3       163       1     218     227     155
CTRIA3       164       1     159     231     223
CTRIA3       165       1     222     232     161
CTRIA3       166       1     226     238     171
CTRIA3       167       1     235     239     172
CTRIA3       168       1     209     233     151
CTRIA3       169       1     174     234     188
CTRIA3       170       1     189     235     172
CTRIA3       171       1     172     239     204
CTRIA3       172       1     201     241     170
CTRIA3       173       1     154     237     198
CTRIA3       174       1     159     238     205
CTRIA3       175       1     206     236     153
CTRIA3       176       1     207     240     202
CTRIA3       177       1     240     244     202
CTRIA3       178       1     170     241     230
CTRIA3       179       1     228     237     154
CTRIA3       180       1      12     253       2
CTRIA3       181       1     197     248     225
CTRIA3       182       1     192     249     224
CTRIA3       183       1     208     242     185
CTRIA3       184       1     199     243     161
CTRIA3       185       1     202     244     173
CTRIA3       186       1     173     244     229
CTRIA3       187       1     231     232     194
CTRIA3       188       1     237     247     198
CTRIA3       189       1     209     245     233
CTRIA3       190       1      80     254       4
CTRIA3       191       1     198     247     162
CTRIA3       192       1     165     245     209
CTRIA3       193       1     164     246     195
CTRIA3       194       1     195     248     196
CTRIA3       195       1     190     249     191
CTRIA3       196       1       1     252      48
CTRIA3       197       1     246     248     195
CTRIA3       198       1     185     242     236
CTRIA3       199       1     205     226     160
CTRIA3       200       1     236     242     153
CTRIA3       201       1     188     234     233
CTRIA3       202       1     234     235     189
CTRIA3       203       1     233     234     151
CTRIA3       204       1     174     235     234
CTRIA3       205       1     182     217     168
CTRIA3       206       1     241     243     199
CTRIA3       207       1     240     242     208
CTRIA3       208       1     201     243     241
CTRIA3       209       1     207     242     240
CTRIA3       210       1     236     245     165
CTRIA3       211       1     162     247     239
CTRIA3       212       1     206     245     236
CTRIA3       213       1     239     247     204
CTRIA3       214       1     186     239     235
CTRIA3       215       1       3     255      44
CTRIA3       216       1     230     241     200
CTRIA3       217       1     164     249     246
CTRIA3       218       1     246     249     190
CTRIA3       219       1     152     244     240
CTRIA3       220       1     156     229     187
CTRIA3       221       1     157     230     200
CTRIA3       222       1     210     237     228
CTRIA3       223       1     185     236     165
CTRIA3       224       1     166     237     210
CTRIA3       225       1     186     235     174
CTRIA3       226       1     152     240     208
CTRIA3       227       1     162     239     186
CTRIA3       228       1      42     227      41
CTRIA3       229       1     229     244     187
CTRIA3       230       1      19     232      18
CTRIA3       231       1      18     231      17
CTRIA3       232       1     210     228     167
CTRIA3       233       1     200     241     199
CTRIA3       234       1     188     233     175
CTRIA3       235       1     171     238     203
CTRIA3       236       1     151     234     189
CTRIA3       237       1      18     232     231
CTRIA3       238       1     233     245     175
CTRIA3       239       1     166     247     237
CTRIA3       240       1     187     244     152
CTRIA3       241       1     153     242     207
CTRIA3       242       1     178     243     201
CTRIA3       243       1     175     245     206
CTRIA3       244       1     158     246     190
CTRIA3       245       1     204     247     166
CTRIA3       246       1     158     248     246
CTRIA3       247       1     180     216     214
CTRIA3       248       1     211     217     155
CTRIA3       249       1     176     212      10
CTRIA3       250       1     211     255     177
CTRIA3       251       1      44     255     211
CTRIA3       252       1     184     227     218
CTRIA3       253       1     219     228     154
CTRIA3       254       1     173     229     221
CTRIA3       255       1     170     230     220
CTRIA3       256       1     223     231     194
CTRIA3       257       1     194     232     222
CTRIA3       258       1      48     252     163
CTRIA3       259       1      46     213     177
CTRIA3       260       1       2     253      11
CTRIA3       261       1     224     249     164
CTRIA3       262       1     225     248     158
CTRIA3       263       1       4     254      45
CTRIA3       264       1       9     252       1
CTRIA3       265       1      47     255       3
CTRIA3       266       1     180     250     215
CTRIA3       267       1     215     250     176
CTRIA3       268       1     168     254      80
CTRIA3       269       1     163     252     212
CTRIA3       270       1     176     253     215
CTRIA3       271       1     177     251     211
CTRIA3       272       1     163     250     180
CTRIA3       273       1     213     254     168
CTRIA3       274       1     215     253      12
CTRIA3       275       1     211     251     217
CTRIA3       276       1     212     250     163
CTRIA3       277       1     217     251     168
CTRIA3       278       1     168     251     213
CTRIA3       279       1     212     252       9
CTRIA3       280       1      11     253     176
CTRIA3       281       1      45     254     213
CTRIA3       282       1     177     255      47
CTRIA3       283       1     176     250     212
CTRIA3       284       1     213     251     177
CTRIA3       285       1      29     276      98
CTRIA3       286       1      84     269      15
CTRIA3       287       1      83     267      14
CTRIA3       288       1      88     273      19
CTRIA3       289       1      44     287     113
CTRIA3       290       1      95     281      26
CTRIA3       291       1     107     284      38
CTRIA3       292       1     113     288      44
CTRIA3       293       1     104     289      35
CTRIA3       294       1     112     286      43
CTRIA3       295       1     102     282      33
CTRIA3       296       1     105     283      36
CTRIA3       297       1      33     256     102
CTRIA3       298       1      30     260      99
CTRIA3       299       1      96     266      27
CTRIA3       300       1     108     258      39
CTRIA3       301       1      41     259     110
CTRIA3       302       1      92     278      23
CTRIA3       303       1     101     271      32
CTRIA3       304       1      93     277      24
CTRIA3       305       1      27     279      96
CTRIA3       306       1      19     268      88
CTRIA3       307       1      24     265      93
CTRIA3       308       1     106     257      37
CTRIA3       309       1      39     285     108
CTRIA3       310       1     110     280      41
CTRIA3       311       1      87     272      18
CTRIA3       312       1      15     264      84
CTRIA3       313       1       2     261       6
CTRIA3       314       1      12     262      81
CTRIA3       315       1      91     263      22
CTRIA3       316       1      81     261      12
CTRIA3       317       1      82     262      13
CTRIA3       318       1      90     270      21
CTRIA3       319       1      16     274      85
CTRIA3       320       1      85     264      16
CTRIA3       321       1      17     272      86
CTRIA3       322       1      86     274      17
CTRIA3       323       1      20     270      89
CTRIA3       324       1      21     263      90
CTRIA3       325       1      28     275      97
CTRIA3       326       1      98     275      29
CTRIA3       327       1      23     277      92
CTRIA3       328       1      97     279      28
CTRIA3       329       1      22     278      91
CTRIA3       330       1      94     265      25
CTRIA3       331       1      36     257     105
CTRIA3       332       1      40     280     109
CTRIA3       333       1      31     271     100
CTRIA3       334       1      89     268      20
CTRIA3       335       1      26     266      95
CTRIA3       336       1      38     258     107
CTRIA3       337       1     109     285      40
CTRIA3       338       1     111     259      42
CTRIA3       339       1     100     260      31
CTRIA3       340       1     103     256      34
CTRIA3       341       1      35     283     104
CTRIA3       342       1      32     282     101
CTRIA3       343       1      42     286     111
CTRIA3       344       1      34     289     103
CTRIA3       345       1      37     284     106
CTRIA3       346       1      43     288     112
CTRIA3       347       1      18     273      87
CTRIA3       348       1      13     267      82
CTRIA3       349       1      14     269      83
CTRIA3       350       1      99     276      30
CTRIA3       351       1      25     281      94
CTRIA3       352       1       5     287       3
CTRIA3       353       1      12     261       2
CTRIA3       354       1       3     287      44
CTRIA3       355       1     113     287       5
CTRIA3       356       1       6     261      81
CTRIA3       357       1      13     262      12
CTRIA3       358       1      14     267      13
CTRIA3       359       1      15     269      14
CTRIA3       360       1      16     264      15
CTRIA3       361       1      17     274      16
CTRIA3       362       1      18     272      17
CTRIA3       363       1      19     273      18
CTRIA3       364       1      20     268      19
CTRIA3       365       1      21     270      20
CTRIA3       366       1      22     263      21
CTRIA3       367       1      23     278      22
CTRIA3       368       1      24     277      23
CTRIA3       369       1      25     265      24
CTRIA3       370       1      26     281      25
CTRIA3       371       1      27     266      26
CTRIA3       372       1      28     279      27
CTRIA3       373       1      29     275      28
CTRIA3       374       1      30     276      29
CTRIA3       375       1      31     260      30
CTRIA3       376       1      32     271      31
CTRIA3       377       1      33     282      32
CTRIA3       378       1      34     256      33
CTRIA3       379       1      35     289      34
CTRIA3       380       1      36     283      35
CTRIA3       381       1      37     257      36
CTRIA3       382       1      38     284      37
CTRIA3       383       1      39     258      38
CTRIA3       384       1      40     285      39
CTRIA3       385       1      41     280      40
CTRIA3       386       1      42     259      41
CTRIA3       387       1      43     286      42
CTRIA3       388       1      44     288      43
CTRIA3       389       1      81     262      82
CTRIA3       390       1      82     267      83
CTRIA3       391       1      83     269      84
CTRIA3       392       1      84     264      85
CTRIA3       393       1      85     274      86
CTRIA3       394       1      86     272      87
CTRIA3       395       1      87     273      88
CTRIA3       396       1      88     268      89
CTRIA3       397       1      89     270      90
CTRIA3       398       1      90     263      91
CTRIA3       399       1      91     278      92
CTRIA3       400       1      92     277      93
CTRIA3       401       1      93     265      94
CTRIA3       402       1      94     281      95
CTRIA3       403       1      95     266      96
CTRIA3       404       1      96     279      97
CTRIA3       405       1      97     275      98
CTRIA3       406       1      98     276      99
CTRIA3       407       1      99     260     100
CTRIA3       408       1     100     271     101
CTRIA3       409       1     101     282     102
CTRIA3       410       1     102     256     103
CTRIA3       411       1     103     289     104
CTRIA3       412       1     104     283     105
CTRIA3       413       1     105     257     106
CTRIA3       414       1     106     284     107
CTRIA3       415       1     107     258     108
CTRIA3       416       1     108     285     109
CTRIA3       417       1     109     280     110
CTRIA3       418       1     110     259     111
CTRIA3       419       1     111     286     112
CTRIA3       420       1     112     288     113
CTRIA3       421       1     323     347     324
CTRIA3       422       1     325     335     322
CTRIA3       423       1     317     348     309
CTRIA3       424       1     309     348     346
CTRIA3       425       1     300     341     340
CTRIA3       426       1     299     339     315
CTRIA3       427       1     319     341     300
CTRIA3       428       1     349     352     316
CTRIA3       429       1     320     331     304
CTRIA3       430       1     301     349     316
CTRIA3       431       1     331     350     304
CTRIA3       432       1     339     351     315
CTRIA3       433       1     294     326     321
CTRIA3       434       1     294     333     326
CTRIA3       435       1     344     353     314
CTRIA3       436       1     311     344     314
CTRIA3       437       1     303     347     323
CTRIA3       438       1     322     335     296
CTRIA3       439       1     321     326     293
CTRIA3       440       1     310     329     302
CTRIA3       441       1     306     345     295
CTRIA3       442       1     295     334     306
CTRIA3       443       1     293     332     321
CTRIA3       444       1     308     332     293
CTRIA3       445       1     307     336     297
CTRIA3       446       1     293     337     308
CTRIA3       447       1     297     338     307
CTRIA3       448       1     298     331     320
CTRIA3       449       1     320     342     298
CTRIA3       450       1     298     342     315
CTRIA3       451       1     304     350     316
CTRIA3       452       1     315     351     298
CTRIA3       453       1     301     341     319
CTRIA3       454       1     292     328     305
CTRIA3       455       1     316     352     304
CTRIA3       456       1     319     349     301
CTRIA3       457       1     303     348     317
CTRIA3       458       1     300     340     309
CTRIA3       459       1     308     337     297
CTRIA3       460       1     309     346     300
CTRIA3       461       1     317     347     303
CTRIA3       462       1     307     338     312
CTRIA3       463       1     312     339     299
CTRIA3       464       1     299     343     312
CTRIA3       465       1     312     343     307
CTRIA3       466       1     297     336     308
CTRIA3       467       1     310     328     292
CTRIA3       468       1     295     344     311
CTRIA3       469       1     292     329     310
CTRIA3       470       1     311     334     295
CTRIA3       471       1     313     333     294
CTRIA3       472       1     318     345     306
CTRIA3       473       1     296     335     314
CTRIA3       474       1     314     353     296
CTRIA3       475       1     302     354     310
CTRIA3       476       1     305     356     292
CTRIA3       477       1     294     355     313
CTRIA3       478       1     306     357     318
CTRIA3       479       1     322     359     290
CTRIA3       480       1     291     360     323
CTRIA3       481       1     113     359     322
CTRIA3       482       1     323     360      81
CTRIA3       483       1     137     313     305
CTRIA3       484       1     145     314     146
CTRIA3       485       1     106     318     302
CTRIA3       486       1      93     315      92
CTRIA3       487       1     311     314     145
CTRIA3       488       1     123     316     124
CTRIA3       489       1      96     307      95
CTRIA3       490       1      94     299      93
CTRIA3       491       1     126     298     127
CTRIA3       492       1     129     312     130
CTRIA3       493       1     299     315      93
CTRIA3       494       1     119     317     309
CTRIA3       495       1     119     309     120
CTRIA3       496       1     101     294     100
CTRIA3       497       1     109     295     108
CTRIA3       498       1     112     296     111
CTRIA3       499       1      98     308      97
CTRIA3       500       1     118     317     119
CTRIA3       501       1     122     301     123
CTRIA3       502       1     133     293     134
CTRIA3       503       1      83     303      82
CTRIA3       504       1      86     300      85
CTRIA3       505       1      87     319      86
CTRIA3       506       1      90     304      89
CTRIA3       507       1     301     316     123
CTRIA3       508       1     131     297     132
CTRIA3       509       1     136     313     137
CTRIA3       510       1     137     305     138
CTRIA3       511       1     139     310     140
CTRIA3       512       1      86     319     300
CTRIA3       513       1      90     320     304
CTRIA3       514       1     142     306     143
CTRIA3       515       1     144     311     145
CTRIA3       516       1     106     302     105
CTRIA3       517       1     107     318     106
CTRIA3       518       1     104     292     103
CTRIA3       519       1      91     320      90
CTRIA3       520       1     100     321      99
CTRIA3       521       1     294     321     100
CTRIA3       522       1     113     322     112
CTRIA3       523       1      82     323      81
CTRIA3       524       1       5     359     113
CTRIA3       525       1     148     358       7
CTRIA3       526       1      81     360       6
CTRIA3       527       1       8     361     116
CTRIA3       528       1     147     335     325
CTRIA3       529       1     324     347     117
CTRIA3       530       1     112     322     296
CTRIA3       531       1     303     323      82
CTRIA3       532       1     324     361     291
CTRIA3       533       1     290     358     325
CTRIA3       534       1     302     329     105
CTRIA3       535       1     295     345     108
CTRIA3       536       1      96     336     307
CTRIA3       537       1      98     332     308
CTRIA3       538       1     131     338     297
CTRIA3       539       1     305     328     138
CTRIA3       540       1     315     342      92
CTRIA3       541       1     293     326     134
CTRIA3       542       1     133     337     293
CTRIA3       543       1     316     350     124
CTRIA3       544       1     306     334     143
CTRIA3       545       1     122     341     301
CTRIA3       546       1     297     337     132
CTRIA3       547       1     126     331     298
CTRIA3       548       1      94     343     299
CTRIA3       549       1      83     348     303
CTRIA3       550       1     300     346      85
CTRIA3       551       1     118     347     317
CTRIA3       552       1      87     349     319
CTRIA3       553       1     309     340     120
CTRIA3       554       1     109     344     295
CTRIA3       555       1     312     338     130
CTRIA3       556       1     307     343      95
CTRIA3       557       1     129     339     312
CTRIA3       558       1     304     352      89
CTRIA3       559       1     298     351     127
CTRIA3       560       1      91     342     320
CTRIA3       561       1     308     336      97
CTRIA3       562       1     144     334     311
CTRIA3       563       1     314     335     146
CTRIA3       564       1     321     332      99
CTRIA3       565       1     136     333     313
CTRIA3       566       1     139     328     310
CTRIA3       567       1     107     345     318
CTRIA3       568       1     104     329     292
CTRIA3       569       1     296     353     111
CTRIA3       570       1     103     356     102
CTRIA3       571       1     140     354     141
CTRIA3       572       1     102     355     101
CTRIA3       573       1     141     357     142
CTRIA3       574       1     115     290     114
CTRIA3       575       1     149     291     150
CTRIA3       576       1     116     324     117
CTRIA3       577       1     147     325     148
CTRIA3       578       1     323     324     291
CTRIA3       579       1     290     325     322
CTRIA3       580       1     313     327     305
CTRIA3       581       1     146     335     147
CTRIA3       582       1     110     353     344
CTRIA3       583       1     110     344     109
CTRIA3       584       1     128     351     339
CTRIA3       585       1     318     330     302
CTRIA3       586       1     134     326     135
CTRIA3       587       1     130     338     131
CTRIA3       588       1      88     352     349
CTRIA3       589       1     138     328     139
CTRIA3       590       1      97     336      96
CTRIA3       591       1     125     331     126
CTRIA3       592       1     128     339     129
CTRIA3       593       1      99     332      98
CTRIA3       594       1     111     353     110
CTRIA3       595       1     120     340     121
CTRIA3       596       1     132     337     133
CTRIA3       597       1      95     343      94
CTRIA3       598       1     121     341     122
CTRIA3       599       1     340     341     121
CTRIA3       600       1      85     346      84
CTRIA3       601       1      88     349      87
CTRIA3       602       1      84     348      83
CTRIA3       603       1     346     348      84
CTRIA3       604       1      89     352      88
CTRIA3       605       1      92     342      91
CTRIA3       606       1     117     347     118
CTRIA3       607       1     143     334     144
CTRIA3       608       1     135     333     136
CTRIA3       609       1     125     350     331
CTRIA3       610       1     127     351     128
CTRIA3       611       1     124     350     125
CTRIA3       612       1     105     329     104
CTRIA3       613       1     326     333     135
CTRIA3       614       1     108     345     107
CTRIA3       615       1     141     354     330
CTRIA3       616       1     102     356     327
CTRIA3       617       1     327     355     102
CTRIA3       618       1     330     357     141
CTRIA3       619       1     116     361     324
CTRIA3       620       1     325     358     148
CTRIA3       621       1     115     358     290
CTRIA3       622       1     149     360     291
CTRIA3       623       1     291     361     150
CTRIA3       624       1     290     359     114
CTRIA3       625       1     310     354     140
CTRIA3       626       1     101     355     294
CTRIA3       627       1     292     356     103
CTRIA3       628       1     142     357     306
CTRIA3       629       1     150     361       8
CTRIA3       630       1       6     360     149
CTRIA3       631       1       7     358     115
CTRIA3       632       1     114     359       5
CTRIA3       633       1     318     357     330
CTRIA3       634       1     330     354     302
CTRIA3       635       1     313     355     327
CTRIA3       636       1     327     356     305
ENDDATA
