# Blender v3.1.2 OBJ File: 'sphere.blend'
# www.blender.org
o Sphere
v 0.000000 -0.707107 -0.707107
v 0.000000 0.000000 -1.000000
v 0.707107 0.000000 -0.707107
v 0.500000 -0.707107 -0.500000
v 0.000000 0.707107 -0.707107
v 0.000000 1.000000 0.000000
v 0.500000 0.707107 -0.500000
v 0.000000 -1.000000 -0.000000
v 0.707107 0.707107 0.000000
v 0.707107 -0.707107 -0.000000
v 1.000000 0.000000 0.000000
v 0.707107 -0.000000 0.707107
v 0.500000 -0.707107 0.500000
v 0.500000 0.707107 0.500000
v 0.000000 -0.000000 1.000000
v 0.000000 -0.707107 0.707107
v 0.000000 0.707107 0.707107
v -0.707107 -0.000000 0.707107
v -0.500000 -0.707107 0.500000
v -0.500000 0.707107 0.500000
v -1.000000 0.000000 0.000000
v -0.707107 -0.707107 -0.000000
v -0.707107 0.707107 0.000000
v -0.707107 0.000000 -0.707107
v -0.500000 -0.707107 -0.500000
v -0.500000 0.707107 -0.500000
vn 0.3574 -0.3574 -0.8629
vn 0.1566 0.9125 -0.3780
vn 0.1566 -0.9125 -0.3780
vn 0.3574 0.3574 -0.8629
vn 0.3780 0.9125 -0.1566
vn 0.3780 -0.9125 -0.1566
vn 0.8629 0.3574 -0.3574
vn 0.8629 -0.3574 -0.3574
vn 0.8629 -0.3574 0.3574
vn 0.3780 0.9125 0.1566
vn 0.3780 -0.9125 0.1566
vn 0.8629 0.3574 0.3574
vn 0.3574 -0.3574 0.8629
vn 0.1566 0.9125 0.3780
vn 0.1566 -0.9125 0.3780
vn 0.3574 0.3574 0.8629
vn -0.3574 -0.3574 0.8629
vn -0.1566 0.9125 0.3780
vn -0.1566 -0.9125 0.3780
vn -0.3574 0.3574 0.8629
vn -0.8629 -0.3574 0.3574
vn -0.3780 0.9125 0.1566
vn -0.3780 -0.9125 0.1566
vn -0.8629 0.3574 0.3574
vn -0.8629 -0.3574 -0.3574
vn -0.3780 0.9125 -0.1566
vn -0.3780 -0.9125 -0.1566
vn -0.8629 0.3574 -0.3574
vn -0.3574 0.3574 -0.8629
vn -0.3574 -0.3574 -0.8629
vn -0.1566 0.9125 -0.3780
vn -0.1566 -0.9125 -0.3780
s 1
f 2//1 4//1 1//1
f 5//2 6//2 7//2
f 8//3 1//3 4//3
f 2//4 7//4 3//4
f 7//5 6//5 9//5
f 8//6 4//6 10//6
f 3//7 9//7 11//7
f 3//8 10//8 4//8
f 11//9 13//9 10//9
f 9//10 6//10 14//10
f 8//11 10//11 13//11
f 11//12 14//12 12//12
f 13//13 15//13 16//13
f 14//14 6//14 17//14
f 8//15 13//15 16//15
f 14//16 15//16 12//16
f 15//17 19//17 16//17
f 17//18 6//18 20//18
f 8//19 16//19 19//19
f 15//20 20//20 18//20
f 18//21 22//21 19//21
f 20//22 6//22 23//22
f 8//23 19//23 22//23
f 18//24 23//24 21//24
f 21//25 25//25 22//25
f 23//26 6//26 26//26
f 8//27 22//27 25//27
f 21//28 26//28 24//28
f 26//29 2//29 24//29
f 25//30 2//30 1//30
f 26//31 6//31 5//31
f 8//32 25//32 1//32
f 2//1 3//1 4//1
f 2//4 5//4 7//4
f 3//7 7//7 9//7
f 3//8 11//8 10//8
f 11//9 12//9 13//9
f 11//12 9//12 14//12
f 13//13 12//13 15//13
f 14//16 17//16 15//16
f 15//17 18//17 19//17
f 15//20 17//20 20//20
f 18//21 21//21 22//21
f 18//24 20//24 23//24
f 21//25 24//25 25//25
f 21//28 23//28 26//28
f 26//29 5//29 2//29
f 25//30 24//30 2//30
