# Blender v3.1.2 OBJ File: 'sphere.blend'
# www.blender.org
o Sphere
v 0.000000 0.707107 -0.707107
v 0.000000 -0.000000 -1.000000
v 0.000000 -0.707107 -0.707107
v 0.500000 0.707107 -0.500000
v 0.707107 -0.000000 -0.707107
v 0.500000 -0.707107 -0.500000
v 0.707107 0.707107 0.000000
v 1.000000 -0.000000 0.000000
v 0.707107 -0.707107 0.000000
v 0.500000 0.707107 0.500000
v 0.707107 -0.000000 0.707107
v 0.500000 -0.707107 0.500000
v 0.000000 -1.000000 0.000000
v 0.000000 0.707107 0.707107
v 0.000000 -0.000000 1.000000
v 0.000000 -0.707107 0.707107
v -0.000000 1.000000 0.000000
v -0.500000 0.707107 0.500000
v -0.707107 -0.000000 0.707107
v -0.500000 -0.707107 0.500000
v -0.707107 0.707107 0.000000
v -1.000000 -0.000000 0.000000
v -0.707107 -0.707107 0.000000
v -0.500000 0.707107 -0.500000
v -0.707107 -0.000000 -0.707107
v -0.500000 -0.707107 -0.500000
vn 0.3574 0.3574 -0.8629
vn 0.3574 -0.3574 -0.8629
vn 0.1566 0.9125 -0.3780
vn 0.1566 -0.9125 -0.3780
vn 0.8629 -0.3574 -0.3574
vn 0.3780 0.9125 -0.1566
vn 0.3780 -0.9125 -0.1566
vn 0.8629 0.3574 -0.3574
vn 0.8629 -0.3574 0.3574
vn 0.3780 0.9125 0.1566
vn 0.3780 -0.9125 0.1566
vn 0.8629 0.3574 0.3574
vn 0.3574 0.3574 0.8629
vn 0.3574 -0.3574 0.8629
vn 0.1566 0.9125 0.3780
vn 0.1566 -0.9125 0.3780
vn -0.1566 -0.9125 0.3780
vn -0.3574 0.3574 0.8629
vn -0.3574 -0.3574 0.8629
vn -0.1566 0.9125 0.3780
vn -0.3780 -0.9125 0.1566
vn -0.8629 0.3574 0.3574
vn -0.8629 -0.3574 0.3574
vn -0.3780 0.9125 0.1566
vn -0.3780 -0.9125 -0.1566
vn -0.8629 0.3574 -0.3574
vn -0.8629 -0.3574 -0.3574
vn -0.3780 0.9125 -0.1566
vn -0.1566 -0.9125 -0.3780
vn -0.3574 0.3574 -0.8629
vn -0.3574 -0.3574 -0.8629
vn -0.1566 0.9125 -0.3780
s off
f 2//1 1//1 4//1 5//1
f 3//2 2//2 5//2 6//2
f 1//3 17//3 4//3
f 13//4 3//4 6//4
f 6//5 5//5 8//5 9//5
f 4//6 17//6 7//6
f 13//7 6//7 9//7
f 5//8 4//8 7//8 8//8
f 9//9 8//9 11//9 12//9
f 7//10 17//10 10//10
f 13//11 9//11 12//11
f 8//12 7//12 10//12 11//12
f 11//13 10//13 14//13 15//13
f 12//14 11//14 15//14 16//14
f 10//15 17//15 14//15
f 13//16 12//16 16//16
f 13//17 16//17 20//17
f 15//18 14//18 18//18 19//18
f 16//19 15//19 19//19 20//19
f 14//20 17//20 18//20
f 13//21 20//21 23//21
f 19//22 18//22 21//22 22//22
f 20//23 19//23 22//23 23//23
f 18//24 17//24 21//24
f 13//25 23//25 26//25
f 22//26 21//26 24//26 25//26
f 23//27 22//27 25//27 26//27
f 21//28 17//28 24//28
f 13//29 26//29 3//29
f 25//30 24//30 1//30 2//30
f 26//31 25//31 2//31 3//31
f 24//32 17//32 1//32
